<svg xmlns="http://www.w3.org/2000/svg" width="64" height="64" viewBox="0 0 64 64" fill="none">
  <path d="M37.0716 56.6827C37.1849 57.4376 38.3547 57.8717 39.6761 57.6642C40.9975 57.4567 41.979 56.6827 41.8466 55.9278C41.7333 55.1729 40.5635 54.7388 39.242 54.9463C37.9206 55.1538 36.9583 55.9469 37.0716 56.6827Z" fill="#A4CEDD"/>
  <path d="M39.5632 56.3992C39.6766 56.5876 39.9032 56.6259 40.1107 56.5876C40.3755 56.5493 40.5447 56.436 40.583 56.2477L40.9597 56.1918V56.1167L40.6007 56.1726C40.6007 56.1535 40.6007 56.1167 40.6007 56.0976L40.5815 56.0034L40.9406 55.9475V55.8724L40.5815 55.9284L40.5433 55.6826L40.43 55.7017L40.4108 55.8533C40.1283 55.8916 39.8252 55.9475 39.5427 55.9857L39.3911 56.0049C39.1086 56.0431 38.8054 56.0991 38.542 56.1373L38.467 55.9857L38.3537 56.0049L38.3919 56.2506L37.9961 56.3065V56.3816L38.3919 56.3257V56.4007C38.3919 56.439 38.4111 56.4566 38.4302 56.4949L38.0152 56.5699V56.645L38.4493 56.5891C38.5626 56.7966 38.826 56.8348 39.0909 56.7966C39.3175 56.7568 39.5441 56.6259 39.5632 56.3992ZM40.4491 56.0211L40.4682 56.1152C40.4874 56.2668 40.3549 56.3978 40.0915 56.436C39.8267 56.4743 39.6383 56.4169 39.6015 56.2477L39.5824 56.1535C39.884 56.0976 40.1666 56.0593 40.4491 56.0211ZM38.5244 56.3992V56.3242C38.8069 56.2683 39.0718 56.23 39.4485 56.1726V56.2477C39.4867 56.4743 39.3352 56.5685 39.0526 56.6244C38.7318 56.6626 38.5626 56.5876 38.5244 56.3992Z" fill="white"/>
  <path d="M39.1218 56.6209C39.2352 56.8093 39.4618 56.8475 39.6692 56.8093C39.9341 56.771 40.1033 56.6577 40.1416 56.4694L40.5183 56.4134V56.3384L40.1593 56.3943C40.1593 56.3752 40.1593 56.3384 40.1593 56.3193L40.1401 56.2251L40.4992 56.1692V56.0941L40.1401 56.15L40.1019 55.9043L39.9886 55.9234L39.9694 56.075C39.6869 56.1133 39.3838 56.1692 39.1012 56.2074L38.9497 56.2266C38.6671 56.2648 38.364 56.3207 38.1006 56.359L38.0256 56.2074L37.9123 56.2266L37.9505 56.4723L37.5547 56.5282V56.6033L37.9505 56.5473V56.6224C37.9505 56.6607 37.9697 56.6783 37.9888 56.7166L37.5738 56.7916V56.8652L38.0079 56.8093C38.1212 57.0168 38.3846 57.055 38.6495 57.0168C38.8761 56.9785 39.1027 56.8461 39.1218 56.6209ZM40.0077 56.2427L40.0268 56.3369C40.046 56.4885 39.9135 56.6194 39.6501 56.6577C39.3852 56.696 39.1969 56.6386 39.1601 56.4694L39.141 56.3752C39.4426 56.3178 39.7252 56.281 40.0077 56.2427ZM38.083 56.6209V56.5459C38.3655 56.49 38.6304 56.4517 39.0071 56.3943V56.4694C39.0453 56.696 38.8938 56.7901 38.6112 56.8461C38.2904 56.8843 38.1212 56.8093 38.083 56.6209Z" fill="white"/>
  <path d="M42.3697 56.8103C42.4638 57.8477 41.1056 58.8292 39.3119 59.0176C37.5181 59.2059 35.9715 58.5084 35.8582 57.4695C35.7449 56.4306 37.1223 55.4506 38.916 55.2623C40.7098 55.0739 42.2564 55.7714 42.3697 56.8103Z" fill="#CCCCCC"/>
  <path fill-rule="evenodd" clip-rule="evenodd" d="M41.269 55.586C40.6465 55.3064 39.8137 55.1784 38.9175 55.2726C38.0228 55.3667 37.2312 55.6581 36.6793 56.0554C36.1261 56.4527 35.8141 56.9545 35.87 57.4681C35.9259 57.9816 36.3365 58.4128 36.9604 58.6938C37.5828 58.9734 38.4157 59.1014 39.3119 59.0073C40.2065 58.9131 40.9938 58.6217 41.5441 58.2244C42.0945 57.8271 42.4065 57.3253 42.3608 56.8132C42.3034 56.2982 41.8929 55.8671 41.269 55.586ZM41.2778 55.5669C41.9047 55.8479 42.324 56.285 42.3814 56.8103C42.4285 57.3341 42.1092 57.8433 41.5559 58.2421C41.0026 58.6423 40.2124 58.9351 39.3133 59.0293C38.4142 59.1235 37.5784 58.997 36.9501 58.7144C36.3232 58.4334 35.9039 57.9963 35.8465 57.471C35.7891 56.9457 36.1084 56.438 36.6646 56.0377C37.2209 55.6375 38.0155 55.3447 38.9146 55.2505C39.8137 55.1578 40.6509 55.2843 41.2778 55.5669Z" fill="#090909"/>
  <path d="M39.3133 58.4525C41.1056 58.2641 42.4844 57.2826 42.3711 56.2452C42.2578 55.2078 40.7289 54.528 38.9366 54.6972C37.1443 54.8664 35.7655 55.867 35.8788 56.9045C35.973 57.9419 37.5196 58.6408 39.3133 58.4525Z" fill="white"/>
  <path fill-rule="evenodd" clip-rule="evenodd" d="M41.291 55.0018C41.915 55.2814 42.3314 55.7155 42.3888 56.2438C42.4462 56.772 42.1239 57.2826 41.5677 57.6829C41.01 58.0831 40.2139 58.3774 39.3148 58.4716C38.4157 58.5658 37.577 58.4378 36.9501 58.1552C36.3247 57.8727 35.9068 57.4342 35.8597 56.9074C35.8023 56.3791 36.1246 55.8641 36.6823 55.4609C37.24 55.0577 38.0361 54.7649 38.9352 54.6795C39.8343 54.5942 40.6671 54.7222 41.291 55.0018ZM41.2763 55.0357C40.6598 54.759 39.8328 54.631 38.9381 54.7163C38.0449 54.8002 37.2547 55.0916 36.7044 55.4903C36.1525 55.8891 35.842 56.3939 35.898 56.903C35.9436 57.4121 36.3468 57.8418 36.9678 58.1214C37.5873 58.401 38.4187 58.5275 39.3133 58.4348C40.2065 58.3407 40.9967 58.0493 41.5486 57.6535C42.1004 57.2562 42.4109 56.7573 42.3549 56.2482C42.2976 55.7376 41.8944 55.3138 41.2763 55.0357Z" fill="#0F0F0E"/>
  <path d="M36.6337 56.9045C36.747 57.6593 37.9169 58.0934 39.2383 57.886C40.5597 57.6785 41.5412 56.9045 41.4088 56.1496C41.2955 55.3947 40.1256 54.9606 38.8042 55.1681C37.4828 55.3756 36.5204 56.1687 36.6337 56.9045Z" fill="#EFC260"/>
  <path d="M43.1098 55.7096C43.204 56.747 41.8458 57.7285 40.052 57.9169C38.2583 58.1052 36.7117 57.4077 36.5984 56.3688C36.4851 55.33 37.8624 54.3499 39.6562 54.1616C41.45 53.9732 42.9965 54.6707 43.1098 55.7096Z" fill="#CCCCCC"/>
  <path fill-rule="evenodd" clip-rule="evenodd" d="M42.0091 54.4853C41.3867 54.2057 40.5523 54.0792 39.6577 54.1719C38.763 54.266 37.9713 54.5574 37.4195 54.9547C36.8662 55.352 36.5543 55.8538 36.6102 56.3674C36.6661 56.8809 37.0766 57.3121 37.7006 57.5931C38.323 57.8727 39.1559 58.0007 40.052 57.9066C40.9467 57.8124 41.734 57.521 42.2843 57.1237C42.8347 56.7264 43.1466 56.2246 43.101 55.7125C43.0421 55.196 42.6316 54.7649 42.0091 54.4853ZM42.018 54.4647C42.6448 54.7458 43.0642 55.1828 43.1216 55.7081C43.1687 56.232 42.8494 56.7397 42.2961 57.1399C41.7428 57.5402 40.9526 57.833 40.0535 57.9272C39.1544 58.0213 38.3186 57.8933 37.6903 57.6123C37.0634 57.3312 36.644 56.8942 36.5866 56.3688C36.5292 55.8435 36.8486 55.3358 37.4048 54.9356C37.961 54.5353 38.7556 54.2425 39.6547 54.1483C40.5538 54.0556 41.3911 54.1836 42.018 54.4647Z" fill="#090909"/>
  <path d="M40.0535 57.3518C41.8458 57.1635 43.2246 56.182 43.1113 55.1445C42.998 54.1071 41.4691 53.4273 39.6768 53.5965C37.8845 53.7657 36.5057 54.7664 36.619 55.8038C36.7132 56.8412 38.2597 57.5402 40.0535 57.3518Z" fill="white"/>
  <path fill-rule="evenodd" clip-rule="evenodd" d="M42.0312 53.9011C42.6551 54.1807 43.0716 54.6148 43.129 55.1431C43.1863 55.6713 42.8641 56.182 42.3079 56.5822C41.7502 56.9825 40.9541 57.2768 40.055 57.3709C39.1559 57.4651 38.3171 57.3371 37.6903 57.0546C37.0649 56.772 36.647 56.3335 36.5999 55.8067C36.5425 55.2785 36.8647 54.7634 37.421 54.3602C37.9787 53.957 38.7748 53.6642 39.6739 53.5789C40.5729 53.4935 41.4073 53.6215 42.0312 53.9011ZM42.0165 53.935C41.3999 53.6583 40.5729 53.5303 39.6783 53.6156C38.7851 53.6995 37.9949 53.9909 37.4445 54.3897C36.8927 54.7884 36.5822 55.2932 36.6381 55.8023C36.6838 56.3114 37.0869 56.7411 37.7079 57.0207C38.3274 57.3003 39.1588 57.4269 40.0535 57.3342C40.9467 57.24 41.7369 56.9486 42.2887 56.5528C42.8405 56.1555 43.151 55.6566 43.0951 55.1475C43.0377 54.6369 42.6331 54.2116 42.0165 53.935Z" fill="#0F0F0E"/>
  <path d="M37.3739 55.8038C37.4872 56.5587 38.657 56.9928 39.9785 56.7853C41.2999 56.5778 42.2814 55.8038 42.1489 55.0489C42.0356 54.294 40.8658 53.8599 39.5444 54.0674C38.223 54.2749 37.2606 55.068 37.3739 55.8038Z" fill="#EFC260"/>
  <path d="M39.8652 55.5212C39.9785 55.7096 40.2051 55.7479 40.4126 55.7096C40.6774 55.6713 40.8466 55.558 40.8849 55.3697L41.2616 55.3138V55.2387L40.9026 55.2946C40.9026 55.2755 40.9026 55.2387 40.9026 55.2196L40.8834 55.1254L41.2425 55.0695V54.9944L40.8834 55.0504L40.8452 54.8046L40.7319 54.8238L40.7127 54.9753C40.4302 55.0136 40.1271 55.0695 39.8446 55.1078L39.693 55.1269C39.4105 55.1651 39.1073 55.2211 38.8439 55.2593L38.7689 55.1078L38.6556 55.1269L38.6938 55.3726L38.298 55.4285V55.5036L38.6938 55.4477V55.5227C38.6938 55.561 38.713 55.5786 38.7321 55.6169L38.3171 55.6919V55.7655L38.7512 55.7096C38.8645 55.9171 39.1279 55.9553 39.3928 55.9171C39.6194 55.8788 39.846 55.7464 39.8652 55.5212ZM40.751 55.1431L40.7701 55.2372C40.7893 55.3888 40.6568 55.5198 40.3934 55.558C40.1286 55.5963 39.9402 55.5389 39.9034 55.3697L39.8843 55.2755C40.1859 55.2181 40.4685 55.1813 40.751 55.1431ZM38.8263 55.5212V55.4462C39.1088 55.3903 39.3737 55.352 39.7504 55.2946V55.3697C39.7886 55.5963 39.6371 55.6905 39.3545 55.7464C39.0338 55.7846 38.8645 55.7096 38.8263 55.5212Z" fill="white"/>
  <path d="M37.9021 61.8958C37.9609 62.4403 37.2399 62.97 36.2981 63.073C35.3563 63.176 34.547 62.8228 34.4734 62.2784C34.3999 61.7339 35.1356 61.2042 36.0774 61.1012C37.0192 60.9835 37.8432 61.3513 37.9021 61.8958Z" fill="#CCCCCC"/>
  <path fill-rule="evenodd" clip-rule="evenodd" d="M37.3164 61.2616C36.9868 61.1174 36.5483 61.0541 36.0789 61.113C35.6094 61.1645 35.1915 61.3219 34.9016 61.5338C34.6103 61.7457 34.4484 62.0106 34.4852 62.2769C34.5205 62.5433 34.7383 62.7655 35.065 62.9082C35.3917 63.0509 35.8272 63.1127 36.2981 63.0627C36.7675 63.0112 37.181 62.8537 37.4694 62.6418C37.7578 62.43 37.9212 62.1651 37.8918 61.8973C37.8623 61.6309 37.646 61.4058 37.3164 61.2616ZM37.3252 61.241C37.6578 61.3867 37.8829 61.6177 37.9124 61.8958C37.9418 62.1739 37.7726 62.4461 37.4812 62.6595C37.1884 62.8744 36.7705 63.0333 36.2981 63.0848C35.8258 63.1363 35.3858 63.073 35.0547 62.9288C34.7236 62.7846 34.4985 62.558 34.4617 62.2799C34.4234 62.0017 34.5926 61.7295 34.8869 61.5147C35.1812 61.2998 35.6021 61.1409 36.0744 61.0894C36.5497 61.032 36.9927 61.0953 37.3252 61.241Z" fill="#090909"/>
  <path d="M36.2834 62.7787C37.2252 62.6757 37.9462 62.146 37.8873 61.6015C37.8285 61.057 37.0192 60.7039 36.0627 60.8069C35.1209 60.9099 34.3999 61.4396 34.4587 61.9841C34.5323 62.5138 35.3416 62.8817 36.2834 62.7787Z" fill="white"/>
  <path fill-rule="evenodd" clip-rule="evenodd" d="M37.3193 60.9452C37.6519 61.0894 37.8756 61.319 37.9065 61.6C37.9374 61.8811 37.7652 62.1563 37.4724 62.3711C37.1781 62.5859 36.7602 62.7463 36.2863 62.7978C35.8125 62.8493 35.3711 62.7831 35.0385 62.636C34.7059 62.4888 34.4793 62.2607 34.4411 61.987C34.4102 61.706 34.5823 61.4308 34.8752 61.216C35.1695 60.9996 35.5874 60.8407 36.0612 60.7892C36.5424 60.7377 36.9868 60.801 37.3193 60.9452ZM36.0656 60.826C36.5409 60.7745 36.9794 60.8378 37.3046 60.979C37.6313 61.1218 37.8417 61.341 37.8697 61.6044C37.8976 61.8678 37.7387 62.1298 37.4503 62.3417C37.1634 62.5521 36.7499 62.7095 36.2819 62.761C35.814 62.8125 35.3799 62.7463 35.0532 62.6021C34.7265 62.4579 34.5132 62.2387 34.4779 61.9826C34.4499 61.7192 34.6088 61.4573 34.8972 61.2454C35.1842 61.035 35.5977 60.8775 36.0656 60.826Z" fill="#0F0F0E"/>
  <path d="M34.8707 61.9694C34.9296 62.3667 35.5476 62.5874 36.254 62.4844C36.9456 62.3667 37.4606 61.9547 37.387 61.5573C37.3282 61.16 36.7101 60.9393 36.0038 61.0423C35.3122 61.16 34.8119 61.5868 34.8707 61.9694Z" fill="#EFC260"/>
  <path d="M36.0921 61.7045C36.0332 61.6015 35.9155 61.5868 35.7978 61.6015C35.6654 61.6162 35.5624 61.6751 35.5476 61.7781L35.3416 61.8075V61.8516L35.5329 61.8222C35.5329 61.8369 35.5329 61.8517 35.5329 61.8664L35.5476 61.9105L35.3563 61.9399V61.9841L35.5476 61.9547L35.5624 62.0871L35.6212 62.0724L35.6359 61.9841C35.7831 61.9694 35.9449 61.9399 36.0921 61.9252L36.1804 61.9105C36.3275 61.8958 36.4894 61.8664 36.6366 61.8516L36.6807 61.9252L36.7396 61.9105L36.7249 61.7781L36.9309 61.7487V61.7045L36.7249 61.7339V61.6898C36.7249 61.6751 36.7248 61.6604 36.7101 61.6456L36.9309 61.6162V61.5721L36.6954 61.6015C36.6366 61.4838 36.5041 61.4691 36.357 61.4838C36.2245 61.5132 36.1068 61.5721 36.0921 61.7045ZM35.6212 61.8958L35.6065 61.8516C35.5918 61.7634 35.6654 61.7045 35.8125 61.6898C35.9449 61.6751 36.048 61.7045 36.0627 61.7928L36.0774 61.8369C35.9155 61.8517 35.7684 61.8811 35.6212 61.8958ZM36.6366 61.7192V61.7634C36.4894 61.7781 36.3423 61.8075 36.151 61.8222V61.7781C36.1362 61.6604 36.2098 61.6015 36.3717 61.5868C36.5188 61.5721 36.6218 61.6162 36.6366 61.7192Z" fill="white"/>
  <path d="M34.5349 58.7776C34.5937 59.3221 33.8727 59.8518 32.9309 59.9548C31.9892 60.0579 31.1798 59.7047 31.1063 59.1602C31.0327 58.6158 31.7684 58.086 32.7102 57.983C33.652 57.8653 34.476 58.2332 34.5349 58.7776Z" fill="#CCCCCC"/>
  <path fill-rule="evenodd" clip-rule="evenodd" d="M33.9492 58.1434C33.6196 57.9992 33.1811 57.9359 32.7117 57.9948C32.2423 58.0463 31.8243 58.2037 31.5345 58.4156C31.2431 58.6275 31.0812 58.8924 31.118 59.1588C31.1533 59.4251 31.3711 59.6473 31.6978 59.79C32.0245 59.9328 32.46 59.9946 32.9309 59.9445C33.4003 59.893 33.8138 59.7356 34.1022 59.5237C34.3907 59.3118 34.554 59.0469 34.5246 58.7791C34.4951 58.5128 34.2788 58.2876 33.9492 58.1434ZM33.958 58.1228C34.2906 58.2685 34.5157 58.4995 34.5452 58.7776C34.5746 59.0558 34.4054 59.328 34.114 59.5414C33.8212 59.7562 33.4033 59.9151 32.9309 59.9666C32.4586 60.0181 32.0186 59.9548 31.6875 59.8106C31.3564 59.6664 31.1313 59.4398 31.0945 59.1617C31.0562 58.8836 31.2254 58.6114 31.5197 58.3965C31.814 58.1817 32.2349 58.0227 32.7073 57.9712C33.1826 57.9139 33.6255 57.9771 33.958 58.1228Z" fill="#090909"/>
  <path d="M32.9162 59.6605C33.858 59.5575 34.579 59.0278 34.5202 58.4833C34.4613 57.9389 33.652 57.5857 32.6955 57.6887C31.7537 57.7917 31.0327 58.3215 31.0915 58.8659C31.1651 59.3957 31.9744 59.7635 32.9162 59.6605Z" fill="white"/>
  <path fill-rule="evenodd" clip-rule="evenodd" d="M33.9521 57.827C34.2847 57.9712 34.5084 58.2008 34.5393 58.4819C34.5702 58.7629 34.398 59.0381 34.1052 59.2529C33.8109 59.4678 33.393 59.6282 32.9191 59.6797C32.4453 59.7312 32.0039 59.6649 31.6713 59.5178C31.3387 59.3706 31.1121 59.1426 31.0739 58.8689C31.043 58.5878 31.2151 58.3126 31.508 58.0978C31.8023 57.8815 32.2202 57.7226 32.694 57.6711C33.1752 57.6196 33.6196 57.6828 33.9521 57.827ZM32.6984 57.7078C33.1737 57.6563 33.6122 57.7196 33.9374 57.8609C34.2641 58.0036 34.4745 58.2229 34.5025 58.4863C34.5305 58.7497 34.3715 59.0116 34.0831 59.2235C33.7962 59.4339 33.3827 59.5914 32.9147 59.6429C32.4468 59.6944 32.0127 59.6282 31.686 59.484C31.3593 59.3397 31.146 59.1205 31.1107 58.8644C31.0827 58.601 31.2416 58.3391 31.53 58.1272C31.817 57.9168 32.2305 57.7593 32.6984 57.7078Z" fill="#0F0F0E"/>
  <path d="M31.5036 58.8512C31.5624 59.2485 32.1805 59.4692 32.8868 59.3662C33.5784 59.2485 34.0934 58.8365 34.0198 58.4392C33.961 58.0419 33.3429 57.8211 32.6366 57.9242C31.945 58.0419 31.4447 58.4686 31.5036 58.8512Z" fill="#EFC260"/>
  <path d="M32.7249 58.5863C32.6661 58.4833 32.5483 58.4686 32.4306 58.4833C32.2982 58.4981 32.1952 58.5569 32.1805 58.6599L31.9744 58.6893V58.7335L32.1657 58.7041C32.1657 58.7188 32.1657 58.7335 32.1657 58.7482L32.1805 58.7923L31.9892 58.8218V58.8659L32.1805 58.8365L32.1952 58.9689L32.254 58.9542L32.2687 58.8659C32.4159 58.8512 32.5778 58.8218 32.7249 58.8071L32.8132 58.7923C32.9604 58.7776 33.1222 58.7482 33.2694 58.7335L33.3135 58.8071L33.3724 58.7923L33.3577 58.6599L33.5637 58.6305V58.5863L33.3577 58.6158V58.5716C33.3577 58.5569 33.3577 58.5422 33.3429 58.5275L33.5637 58.498V58.4539L33.3282 58.4833C33.2694 58.3656 33.1369 58.3509 32.9898 58.3656C32.8573 58.395 32.7396 58.4539 32.7249 58.5863ZM32.254 58.7776L32.2393 58.7335C32.2246 58.6452 32.2982 58.5863 32.4453 58.5716C32.5778 58.5569 32.6808 58.5863 32.6955 58.6746L32.7102 58.7188C32.5483 58.7335 32.4012 58.7629 32.254 58.7776ZM33.2694 58.6011V58.6452C33.1222 58.6599 32.9751 58.6893 32.7838 58.7041V58.6599C32.7691 58.5422 32.8426 58.4833 33.0045 58.4686C33.1517 58.4539 33.2547 58.498 33.2694 58.6011Z" fill="white"/>
  <path d="M20.7219 15.4928C20.6219 15.4928 20.5409 15.4148 20.538 15.3162C20.4571 13.2443 20.4379 9.24769 21.1972 5.75874C21.5401 4.19452 22.2391 2.84074 23.1661 1.94164C23.7076 1.41926 24.2521 1.1176 24.8216 1.0249C24.8583 1.01754 25.6868 0.888043 26.5697 1.30154C27.975 1.96077 28.4547 5.87205 27.7881 11.2637C27.7764 11.3637 27.6807 11.4402 27.5821 11.4255C27.482 11.4138 27.4085 11.3225 27.4202 11.2195C28.0456 6.14869 27.6307 2.20652 26.4078 1.63557C25.6309 1.27064 24.8848 1.38542 24.8775 1.38836C24.3801 1.46929 23.9019 1.73858 23.4163 2.20946C22.5407 3.05558 21.8741 4.34462 21.5504 5.8382C20.7999 9.28595 20.8176 13.2472 20.8985 15.3044C20.9015 15.4074 20.8249 15.4928 20.7219 15.4957C20.7264 15.4928 20.7264 15.4928 20.7219 15.4928Z" fill="black"/>
  <path d="M35.9454 12.7384V12.6972L35.9336 6.34473L41.5724 9.28186L42.0948 18.4979" fill="#3496B5"/>
  <path fill-rule="evenodd" clip-rule="evenodd" d="M35.8398 6.19336L41.6597 9.22467L42.185 18.4922L42.0011 18.5025L41.4816 9.33945L36.0253 6.49649L36.0356 12.6974V12.7386H35.8516V12.6989L35.8398 6.19336Z" fill="#151110"/>
  <path fill-rule="evenodd" clip-rule="evenodd" d="M21.3398 52.4382L21.6341 52.2764L21.7224 52.4382L21.4281 52.6001L21.3398 52.4382Z" fill="#151110"/>
  <path d="M35.9469 12.736L33.1863 16.4133L20.4298 24.7082L13.9493 19.0002L13.9375 18.8015L35.7512 6.34668L35.9469 12.736Z" fill="#1B3B72"/>
  <path fill-rule="evenodd" clip-rule="evenodd" d="M35.8384 6.18945L36.0385 12.7347V12.7391H35.9517L36.0209 12.7906L33.2515 16.4797L20.4229 24.8217L13.8599 19.0416L13.8438 18.7473L35.8384 6.18945ZM35.8531 12.7053L33.122 16.3429L20.4376 24.5907L14.038 18.9548L14.0321 18.8518L35.6633 6.50142L35.8531 12.7053Z" fill="#151110"/>
  <path d="M41.5599 9.37891L19.9375 21.8632L22.0359 58.6848L43.6832 46.4845L41.5599 9.37891Z" fill="#62ABC7"/>
  <path fill-rule="evenodd" clip-rule="evenodd" d="M41.6427 9.22461L43.7779 46.5362L21.9524 58.8365L19.8438 21.8104L41.6427 9.22461ZM20.0321 21.9134L22.1187 58.5305L43.588 46.4317L41.4764 9.53362L20.0321 21.9134Z" fill="#151110"/>
  <path d="M13.9163 18.8906L19.9377 21.8601L21.8551 58.664L11.8047 52.5543L13.9163 18.8906Z" fill="#1D69A4"/>
  <path fill-rule="evenodd" clip-rule="evenodd" d="M13.8358 18.7471L20.0294 21.8019L21.9585 58.8325L11.7109 52.6035L13.8358 18.7471ZM14.0021 19.034L11.9022 52.505L21.7569 58.4955L19.8513 21.9196L14.0021 19.034Z" fill="#151110"/>
  <path d="M49.4666 34.6602C49.4151 34.6588 49.3754 34.6161 49.3783 34.5646C49.4195 33.5286 49.4283 31.5362 49.0501 29.7998C48.8868 29.0479 48.5528 28.399 48.1113 27.9737C47.8671 27.7368 47.6257 27.6014 47.377 27.5602C47.3726 27.5587 46.9974 27.5013 46.6074 27.6838C45.9924 27.9707 45.7834 29.9543 46.0983 32.5074C46.1042 32.5589 46.0674 32.606 46.0174 32.6104C45.9673 32.6178 45.9188 32.5795 45.9144 32.5295C45.5789 29.816 45.8202 27.8471 46.5265 27.5146C46.9709 27.3071 47.3873 27.3718 47.4065 27.3763C47.6934 27.4219 47.9671 27.5749 48.2393 27.8368C48.7058 28.2886 49.0575 28.9699 49.2297 29.7572C49.6108 31.5127 49.602 33.5257 49.5608 34.5675C49.5593 34.6176 49.5181 34.6558 49.4681 34.6558C49.4651 34.6588 49.4651 34.6588 49.4666 34.6602Z" fill="black"/>
  <path d="M38.7172 36.1715L38.9806 31.5333L41.8162 30.0544L41.8103 33.252V33.2726" fill="#2285B1"/>
  <path fill-rule="evenodd" clip-rule="evenodd" d="M41.8574 33.252V33.2726H41.7647V33.252L41.7706 30.1309L39.0262 31.5612L38.7643 36.1729L38.6716 36.167L38.9365 31.5024L41.8633 29.9764L41.8574 33.252Z" fill="#151110"/>
  <path d="M41.8089 33.2726V33.2711L41.9074 30.0559L52.879 36.3245L52.8731 36.4246L49.6137 39.2984L43.198 35.1223L41.8103 33.2711V33.2726H41.8089Z" fill="#155E84"/>
  <path fill-rule="evenodd" clip-rule="evenodd" d="M52.9261 36.298L52.9173 36.4466L49.6167 39.3558L43.1641 35.1561L41.7706 33.2991L41.8059 33.2726H41.7618V33.2711L41.8618 29.9764L52.9261 36.298ZM41.9501 30.1339L52.829 36.351L52.826 36.4025L49.6079 39.2396L43.2289 35.0884L41.8559 33.2579L41.9501 30.1339Z" fill="#151110"/>
  <path d="M37.9182 50.2582L48.8059 56.3988L49.861 37.8652L38.9865 31.5818L37.9182 50.2582Z" fill="#499BC7"/>
  <path fill-rule="evenodd" clip-rule="evenodd" d="M49.9095 37.8387L48.8486 56.4753L37.8711 50.2832L38.9453 31.5024L49.9095 37.8387ZM39.0277 31.6598L37.9653 50.2332L48.7632 56.3238L49.8139 37.8917L39.0277 31.6598Z" fill="#151110"/>
  <path d="M53.9517 53.3146L48.8971 56.39L49.8624 37.8652L52.8908 36.3701L53.9517 53.3146Z" fill="#2285B1"/>
  <path fill-rule="evenodd" clip-rule="evenodd" d="M54.0003 53.3396L48.8471 56.4753L49.8168 37.8357L52.932 36.298L54.0003 53.3396ZM49.9051 37.8946L48.9471 56.3047L53.9032 53.2895L52.8466 36.4422L49.9051 37.8946Z" fill="#151110"/>
  <path d="M46.2602 37.2574C46.2087 37.256 46.1689 37.2133 46.1719 37.1618C46.2131 36.1288 46.2219 34.1349 45.8437 32.397C45.6804 31.6451 45.3478 30.9962 44.9049 30.5709C44.6606 30.334 44.4193 30.1986 44.1706 30.1574C44.1662 30.1559 43.791 30.0985 43.401 30.281C42.7859 30.568 42.577 32.5516 42.8919 35.1046C42.8978 35.1561 42.861 35.2032 42.8109 35.2091C42.7594 35.2165 42.7124 35.1782 42.7079 35.1282C42.3724 32.4147 42.6138 30.4444 43.3201 30.1133C43.7645 29.9058 44.1824 29.9705 44.2001 29.9749C44.4885 30.0206 44.7607 30.1736 45.0329 30.4355C45.4994 30.8873 45.8511 31.5686 46.0233 32.3558C46.4044 34.1143 46.3955 36.1244 46.3543 37.1662C46.3529 37.2162 46.3117 37.2545 46.2616 37.2545C46.2587 37.256 46.2587 37.256 46.2602 37.2574Z" fill="black"/>
  <path d="M24.1473 19.1984L19.434 22.9551L19.2015 35.5351L28.6707 35.5262L28.7193 22.8242L24.1473 19.1984Z" fill="#93B9D8"/>
  <path fill-rule="evenodd" clip-rule="evenodd" d="M24.1472 19.1514L28.7561 22.8064L28.7073 35.563L19.1641 35.5719L19.3976 22.9371L24.1472 19.1514ZM24.1473 19.2454L19.4705 22.9731L19.239 35.4982L28.6341 35.4895L28.6824 22.8419L24.1473 19.2454Z" fill="black"/>
  <path fill-rule="evenodd" clip-rule="evenodd" d="M25.4009 33.7875L22.7095 27.3953L22.8451 27.3382L25.5365 33.7304L25.4009 33.7875Z" fill="white"/>
  <path fill-rule="evenodd" clip-rule="evenodd" d="M22.1063 30.9307C21.7739 30.9307 21.5044 31.2002 21.5044 31.5326C21.5044 31.8649 21.7739 32.1344 22.1063 32.1344C22.4387 32.1344 22.7081 31.8649 22.7081 31.5326C22.7081 31.2002 22.4387 30.9307 22.1063 30.9307ZM21.3573 31.5326C21.3573 31.1189 21.6926 30.7836 22.1063 30.7836C22.52 30.7836 22.8553 31.1189 22.8553 31.5326C22.8553 31.9462 22.52 32.2816 22.1063 32.2816C21.6926 32.2816 21.3573 31.9462 21.3573 31.5326Z" fill="white"/>
  <path fill-rule="evenodd" clip-rule="evenodd" d="M26.2957 28.8014C25.9633 28.8014 25.6938 29.0709 25.6938 29.4033C25.6938 29.7357 25.9633 30.0051 26.2957 30.0051C26.6281 30.0051 26.8975 29.7357 26.8975 29.4033C26.8975 29.0709 26.6281 28.8014 26.2957 28.8014ZM25.5467 29.4033C25.5467 28.9896 25.882 28.6543 26.2957 28.6543C26.7093 28.6543 27.0447 28.9896 27.0447 29.4033C27.0447 29.8169 26.7093 30.1523 26.2957 30.1523C25.882 30.1523 25.5467 29.8169 25.5467 29.4033Z" fill="white"/>
  <path d="M24.9815 19.0801L18.9542 19.1537L11.0522 28.9436L18.5348 34.7487L26.3677 24.7484L24.9815 19.0801ZM23.7057 21.9599C23.2422 21.9599 22.8669 21.5846 22.8669 21.1211C22.8669 20.6576 23.2422 20.2823 23.7057 20.2823C24.1692 20.2823 24.5459 20.6576 24.5459 21.1211C24.5459 21.5846 24.1692 21.9599 23.7057 21.9599Z" fill="white"/>
  <path fill-rule="evenodd" clip-rule="evenodd" d="M25.0103 19.043L26.4076 24.757L18.5412 34.8002L11 28.9497L18.9364 19.1171L25.0103 19.043ZM18.9719 19.1903L11.1044 28.9376L18.5284 34.6972L26.3277 24.7397L24.9527 19.1173L18.9719 19.1903ZM23.7057 20.3191C23.2625 20.3191 22.9037 20.6779 22.9037 21.1211C22.9037 21.5643 23.2625 21.9231 23.7057 21.9231C24.149 21.9231 24.5091 21.5642 24.5091 21.1211C24.5091 20.678 24.149 20.3191 23.7057 20.3191ZM22.8301 21.1211C22.8301 20.6373 23.2218 20.2455 23.7057 20.2455C24.1894 20.2455 24.5827 20.6372 24.5827 21.1211C24.5827 21.605 24.1894 21.9966 23.7057 21.9966C23.2218 21.9966 22.8301 21.6049 22.8301 21.1211Z" fill="black"/>
  <path fill-rule="evenodd" clip-rule="evenodd" d="M16.7852 31.2063L18.8041 24.5713L18.9448 24.6141L16.9259 31.2492L16.7852 31.2063Z" fill="black"/>
  <path fill-rule="evenodd" clip-rule="evenodd" d="M15.6943 26.7643C15.3619 26.7643 15.0925 27.0338 15.0925 27.3662C15.0925 27.6986 15.3619 27.968 15.6943 27.968C16.0267 27.968 16.2962 27.6986 16.2962 27.3662C16.2962 27.0338 16.0267 26.7643 15.6943 26.7643ZM14.9453 27.3662C14.9453 26.9525 15.2806 26.6172 15.6943 26.6172C16.108 26.6172 16.4433 26.9525 16.4433 27.3662C16.4433 27.7798 16.108 28.1152 15.6943 28.1152C15.2806 28.1152 14.9453 27.7798 14.9453 27.3662Z" fill="black"/>
  <path fill-rule="evenodd" clip-rule="evenodd" d="M20.2724 27.8063C19.94 27.8063 19.6706 28.0758 19.6706 28.4082C19.6706 28.7406 19.94 29.01 20.2724 29.01C20.6048 29.01 20.8743 28.7406 20.8743 28.4082C20.8743 28.0758 20.6048 27.8063 20.2724 27.8063ZM19.5234 28.4082C19.5234 27.9945 19.8588 27.6592 20.2724 27.6592C20.6861 27.6592 21.0214 27.9945 21.0214 28.4082C21.0214 28.8218 20.6861 29.1572 20.2724 29.1572C19.8588 29.1572 19.5234 28.8218 19.5234 28.4082Z" fill="black"/>
  <path d="M24.5304 21.2994C24.4907 21.2802 24.4509 21.2567 24.4112 21.2331C24.0639 21.0183 23.8196 20.6843 23.6843 20.2825C23.6181 20.0912 23.5783 19.8838 23.5621 19.666C23.5489 19.4835 23.5533 19.2922 23.5754 19.0965C23.6342 18.5653 23.827 18.0017 24.1552 17.472C25.0454 16.0343 26.6052 15.3883 27.6382 16.0284C28.6712 16.6685 28.786 18.3534 27.8943 19.7896C27.5352 20.3708 27.0658 20.8211 26.567 21.111" stroke="#0E1533" stroke-width="0.291811" stroke-miterlimit="10"/>
  <path d="M26.8743 19.9078C26.7742 19.9078 26.6933 19.8298 26.6903 19.7312C26.6094 17.6593 26.5903 13.6657 27.3496 10.1738C27.6924 8.60957 28.3914 7.25578 29.3185 6.35669C29.86 5.8343 30.4 5.53264 30.9739 5.43993C31.0078 5.43258 31.8392 5.30308 32.7221 5.71658C34.1274 6.37582 34.6071 10.2871 33.9405 15.6787C33.9287 15.7788 33.8375 15.8553 33.7345 15.8406C33.6344 15.8288 33.5608 15.7376 33.5726 15.6346C34.198 10.5637 33.783 6.62156 32.5602 6.05061C31.7832 5.68568 31.0372 5.80045 31.0298 5.8034C30.5325 5.88433 30.0542 6.15361 29.5686 6.6245C28.6887 7.47062 28.0265 8.75966 27.7027 10.2532C26.9523 13.7054 26.9699 17.6652 27.0509 19.7195C27.0553 19.8225 26.9773 19.9078 26.8743 19.9108C26.8787 19.9078 26.8787 19.9078 26.8743 19.9078Z" fill="black"/>
</svg>