<svg xmlns="http://www.w3.org/2000/svg" width="77" height="65" viewBox="0 0 77 65" fill="none">
  <path d="M54.4272 42.3189C53.3332 45.9199 50.3382 48.1333 44.3456 52.56C36.9359 58.0339 31.3414 62.167 24.598 60.9055C18.4753 59.7606 11.7533 54.2332 11.8727 48.4778C11.9678 43.8794 16.341 43.4611 18.4391 36.9309C21.544 27.2689 14.7041 19.6715 17.6763 13.6132C20.753 7.34035 31.1671 9.19579 32.001 9.35533C45.8565 12.0111 57.8351 31.0978 54.4272 42.3189Z" fill="#5C97B8"/>
  <path d="M52.4958 21.7376L55.165 23.6212C54.913 24.7407 54.4907 25.7998 53.9236 26.7798L50.816 26.4433C50.5009 26.8937 50.1483 27.3026 49.7475 27.6968L51.1753 30.1515C50.206 30.9961 49.116 31.6798 47.939 32.2295L45.6706 30.1917C45.2121 30.3325 44.7241 30.4464 44.2214 30.547L43.9707 33.3757C43.3392 33.4696 42.6931 33.5098 42.0415 33.5098C41.394 33.5098 40.7411 33.4562 40.1096 33.3757L39.8804 30.4531C39.2275 30.3124 38.5961 30.0979 38.0075 29.8431L36.2419 32.2965C35.0005 31.7468 33.8529 31.0014 32.8407 30.1166L34.2899 27.1136C33.9963 26.7798 33.7443 26.4299 33.515 26.0558L29.9195 26.4299C29.4824 25.545 29.1231 24.62 28.8939 23.6413L32.1087 21.7175C32.0873 21.5634 32.0873 21.381 32.0873 21.2067C32.0873 21.0338 32.1087 20.8729 32.1087 20.6986L28.8295 18.5992C29.0373 17.5401 29.3953 16.5413 29.8779 15.5962C31.1408 15.6364 32.5686 15.6565 33.9963 15.678C34.0392 15.6431 34.0607 15.5828 34.1036 15.5426C34.247 15.3482 34.3972 15.1672 34.5621 14.9929L32.8193 11.8357C33.7671 10.9911 34.8785 10.2672 36.077 9.71749L38.1577 12.506C38.2448 12.4658 38.344 12.4256 38.4526 12.3854C38.7824 12.2647 39.1417 12.1507 39.4996 12.0502L40.0453 8.5565C40.6767 8.46399 41.3229 8.42377 41.9973 8.42377C42.6287 8.42377 43.2601 8.46399 43.8701 8.54443L44.1208 11.8424C44.6021 11.9228 45.1116 12.0435 45.5714 12.1977L48.2835 9.88507C49.2514 10.361 50.1336 10.9442 50.9313 11.6145L50.0491 15.0666C50.2569 15.3227 50.4728 15.5761 50.6792 15.8522L53.8311 15.1471C54.5416 16.3818 55.0283 17.7358 55.2588 19.1703L52.359 19.9747C52.4247 20.3836 52.4462 20.8193 52.4462 21.2483C52.4462 21.4226 52.4462 21.617 52.4958 21.7376Z" fill="white"/>
  <path fill-rule="evenodd" clip-rule="evenodd" d="M40.0892 8.60093L39.5443 12.0899L39.5132 12.0986C39.1563 12.1989 38.7983 12.3124 38.47 12.4325C38.3622 12.4725 38.2643 12.5122 38.1787 12.5517L38.1417 12.5687L36.0611 9.78018C34.8936 10.3199 33.8103 11.0255 32.8827 11.8466L34.6239 15.0008L34.5986 15.0274C34.4352 15.2001 34.2864 15.3795 34.144 15.5724L34.1413 15.5761L34.138 15.5792C34.122 15.5942 34.1094 15.6134 34.0928 15.6386L34.092 15.6399C34.0764 15.6635 34.0564 15.6939 34.028 15.717L34.0139 15.7285L33.9956 15.7282C33.9155 15.727 33.8355 15.7258 33.7554 15.7246C32.4203 15.7046 31.0927 15.6848 29.9082 15.6474C29.4399 16.5703 29.0912 17.5442 28.8855 18.5753L32.159 20.6711V20.6986C32.159 20.7876 32.1535 20.8729 32.1482 20.9562L32.1482 20.9564C32.1428 21.0403 32.1375 21.1221 32.1375 21.2067C32.1375 21.382 32.1376 21.5606 32.1585 21.7106L32.1631 21.7436L28.9513 23.6656C29.177 24.615 29.5256 25.5144 29.9491 26.3762L33.5414 26.0026L33.5579 26.0296C33.7859 26.4015 34.0362 26.749 34.3277 27.0804L34.3497 27.1054L32.9027 30.1039C33.894 30.9657 35.0145 31.6933 36.225 32.2339L37.9904 29.7809L38.0275 29.797C38.6135 30.0506 39.2418 30.264 39.891 30.404L39.9276 30.4119L40.1566 33.331C40.7739 33.4084 41.4105 33.4595 42.0415 33.4595C42.6775 33.4595 43.3079 33.4211 43.9241 33.3317L44.1746 30.505L44.2115 30.4977C44.7133 30.3973 45.1995 30.2837 45.6558 30.1436L45.683 30.1353L47.9478 32.1698C49.097 31.6303 50.1617 30.9623 51.1109 30.1408L49.6844 27.6883L49.7122 27.6609C50.1111 27.2687 50.4617 26.8621 50.7748 26.4145L50.7918 26.3901L53.8964 26.7263C54.4473 25.768 54.8593 24.7344 55.1085 23.6429L52.4548 21.7703L52.4493 21.7568C52.4214 21.6889 52.4085 21.6037 52.4022 21.5167C52.3959 21.4294 52.3959 21.3358 52.3959 21.2493V21.2483C52.3959 20.8208 52.3745 20.388 52.3094 19.9827L52.3023 19.9383L55.202 19.1339C54.9716 17.7344 54.4961 16.4123 53.8059 15.2042L50.6584 15.9084L50.639 15.8823C50.4884 15.6809 50.3331 15.4921 50.1788 15.3044C50.1223 15.2357 50.066 15.1672 50.0101 15.0983L49.9942 15.0787L50.8747 11.6327C50.0946 10.9802 49.2337 10.4113 48.2909 9.9448L45.5824 12.2544L45.5554 12.2453C45.0985 12.0921 44.5917 11.9721 44.1125 11.892L44.0737 11.8855L43.8231 8.589C43.2279 8.51238 42.6126 8.47405 41.9973 8.47405C41.338 8.47405 40.7062 8.51261 40.0892 8.60093ZM40.038 8.50675C40.6723 8.41384 41.3209 8.3735 41.9973 8.3735C42.6308 8.3735 43.2644 8.41385 43.8767 8.49459L43.9172 8.49992L44.168 11.7994C44.6305 11.8785 45.1172 11.9943 45.5604 12.141L48.276 9.82537L48.3057 9.83995C49.2774 10.3177 50.1629 10.9032 50.9636 11.576L50.9878 11.5963L50.1041 15.0546C50.154 15.1159 50.2045 15.1773 50.2552 15.239C50.4034 15.4192 50.554 15.6023 50.6999 15.7961L53.8562 15.0899L53.8746 15.122C54.5882 16.3619 55.0769 17.7218 55.3085 19.1623L55.3156 19.2067L52.4156 20.0112C52.4765 20.4107 52.4965 20.8333 52.4965 21.2483C52.4965 21.3358 52.4965 21.4261 52.5025 21.5094C52.5081 21.5866 52.5187 21.654 52.5372 21.7053L55.2214 23.5995L55.214 23.6323C54.9608 24.7569 54.5366 25.8207 53.9671 26.805L53.9507 26.8333L50.8401 26.4965C50.5348 26.9297 50.1947 27.3247 49.8105 27.7052L51.2396 30.1621L51.2083 30.1894C50.235 31.0374 49.141 31.7236 47.9602 32.275L47.9301 32.2891L45.6581 30.2481C45.2167 30.3823 44.7489 30.4919 44.2681 30.5889L44.0173 33.4196L43.9781 33.4254C43.3438 33.5197 42.6951 33.5601 42.0415 33.5601C41.3913 33.5601 40.7362 33.5062 40.1033 33.4256L40.0627 33.4204L39.8332 30.4943C39.2034 30.3557 38.5942 30.1494 38.0247 29.9053L36.2589 32.359L36.2215 32.3425C34.9753 31.7906 33.8234 31.0424 32.8076 30.1545L32.7788 30.1293L34.2302 27.1217C33.9509 26.8011 33.7092 26.4658 33.4888 26.1091L29.8899 26.4835L29.8744 26.4521C29.436 25.5647 29.0752 24.636 28.8449 23.6528L28.8365 23.6171L32.0547 21.6913C32.037 21.5412 32.037 21.3698 32.037 21.2091V21.2067C32.037 21.1188 32.0424 21.0342 32.0477 20.9512L32.0478 20.95C32.0526 20.8752 32.0573 20.8016 32.0583 20.726L28.7736 18.6231L28.7802 18.5895C28.9889 17.5255 29.3485 16.5223 29.8331 15.5733L29.8476 15.5449L29.8795 15.5459C31.0711 15.5839 32.4097 15.6039 33.7571 15.6241C33.8303 15.6252 33.9035 15.6263 33.9767 15.6274C33.9865 15.6166 33.9961 15.6027 34.008 15.5847C34.0089 15.5832 34.0099 15.5816 34.011 15.5801C34.0249 15.5587 34.0425 15.532 34.0657 15.5092C34.2022 15.3246 34.3448 15.1517 34.5004 14.9851L32.7558 11.8249L32.7858 11.7982C33.7375 10.9501 34.8531 10.2235 36.056 9.67179L36.093 9.65485L38.1738 12.4435C38.253 12.4083 38.3408 12.3732 38.4352 12.3382L38.4353 12.3381C38.757 12.2205 39.1063 12.1092 39.455 12.0106L40.0013 8.51213L40.038 8.50675Z" fill="#040404"/>
  <path d="M42.0428 14.4312C37.9459 14.4312 34.6291 17.528 34.6291 21.3569C34.6291 25.1844 37.9459 28.2813 42.0428 28.2813C46.1398 28.2813 49.4552 25.1844 49.4552 21.3569C49.4619 17.5347 46.1412 14.4312 42.0428 14.4312ZM47.2539 23.8773C46.7083 24.978 45.7832 25.8628 44.6262 26.4124C43.8514 26.7865 42.9478 27.0023 42.0214 27.0023C41.7908 27.0023 41.5629 26.9822 41.3256 26.9608C41.0307 26.9205 40.7585 26.8817 40.485 26.8066C40.1485 26.7262 39.8321 26.6122 39.5385 26.4714C39.2007 26.3159 38.8628 26.1349 38.5692 25.9218C37.8949 25.4525 37.3278 24.8627 36.9323 24.1588C36.7245 23.8036 36.573 23.4537 36.4524 23.0582C36.3089 22.5889 36.2218 22.0996 36.2218 21.5701C36.2218 20.7657 36.4081 20.0015 36.746 19.3111C37.1844 18.4062 37.9016 17.6219 38.7623 17.0722C38.7623 17.0722 38.769 17.0655 38.7837 17.0521C39.3508 16.6968 40.0037 16.422 40.6928 16.2692C40.9234 16.2089 41.1728 16.1673 41.4101 16.1485C41.6179 16.1284 41.8122 16.1284 42.0201 16.1284C42.9022 16.1284 43.7629 16.3228 44.4962 16.658C44.9198 16.8524 45.314 17.087 45.6947 17.3618C46.9938 18.3606 47.8196 19.8554 47.8196 21.5392V21.5996C47.821 22.4026 47.5904 23.1869 47.2539 23.8773Z" fill="#4775B0"/>
  <path d="M33.5137 39.7464L36.7473 42.0282C36.443 43.3849 35.9308 44.6679 35.2444 45.8544L31.4786 45.4468C31.0965 45.9924 30.6702 46.4871 30.1835 46.9657L31.913 49.9393C30.7399 50.9635 29.4194 51.7907 27.9929 52.457L25.246 49.9875C24.6896 50.1591 24.0984 50.2972 23.4897 50.4179L23.1854 53.8446C22.4199 53.9599 21.6383 54.0081 20.8473 54.0081C20.0644 54.0081 19.2734 53.9424 18.5079 53.8446L18.2304 50.3053C17.4381 50.1337 16.6739 49.8749 15.9607 49.5652L13.8224 52.5388C12.3182 51.8725 10.928 50.9702 9.70128 49.8977L11.4575 46.2592C11.1022 45.8544 10.7966 45.4307 10.5177 44.9762L6.162 45.4307C5.63244 44.3582 5.19808 43.2388 4.91922 42.0523L8.81378 39.7223C8.78831 39.5346 8.78831 39.3147 8.78831 39.1043C8.78831 38.8924 8.81378 38.698 8.81378 38.4876L4.84281 35.9444C5.09351 34.6614 5.52787 33.4508 6.11105 32.3059C7.64206 32.3541 9.37148 32.3796 11.1022 32.4037C11.1532 32.3635 11.1787 32.2898 11.2309 32.2415C11.4052 32.0056 11.5876 31.7857 11.7873 31.5752L9.67581 27.7491C10.8234 26.7275 12.1707 25.8494 13.6226 25.1831L16.143 28.5615C16.2476 28.5132 16.3696 28.4636 16.4996 28.4154C16.9005 28.2692 17.3349 28.1311 17.7692 28.0105L18.4302 23.7781C19.1943 23.6641 19.9773 23.6159 20.795 23.6159C21.5592 23.6159 22.3247 23.6641 23.0634 23.762L23.3677 27.7571C23.9496 27.855 24.5663 28.0024 25.124 28.1888L28.4099 25.3855C29.5829 25.9633 30.6528 26.6685 31.618 27.4823L30.5495 31.6651C30.8016 31.9734 31.0616 32.2817 31.3137 32.6156L35.1305 31.7616C35.9912 33.2564 36.5824 34.8973 36.8612 36.6361L33.3488 37.6094C33.4265 38.1055 33.4533 38.6337 33.4533 39.1539C33.4533 39.3643 33.4533 39.6003 33.5137 39.7464Z" fill="white"/>
  <path fill-rule="evenodd" clip-rule="evenodd" d="M18.4741 23.8224L17.8139 28.0503L17.7827 28.0589C17.3495 28.1792 16.9165 28.3169 16.517 28.4625C16.3879 28.5105 16.2672 28.5596 16.1641 28.6071L16.1271 28.6242L13.6067 25.2458C12.1859 25.9021 10.8667 26.7618 9.73925 27.76L11.8491 31.5832L11.8238 31.6098C11.6256 31.8187 11.4446 32.037 11.2714 32.2714L11.2685 32.2752L11.265 32.2785C11.2447 32.2972 11.2289 32.3215 11.2091 32.3517L11.2082 32.3532C11.1896 32.3816 11.1663 32.4172 11.1334 32.4432L11.1194 32.4543L11.1015 32.454C9.38287 32.4301 7.66502 32.4048 6.1414 32.3571C5.5725 33.4798 5.14736 34.6655 4.89874 35.9205L8.86405 38.4601V38.4876C8.86405 38.5942 8.85762 38.6966 8.85129 38.7974L8.85122 38.7986C8.84483 38.9002 8.83858 39.0002 8.83858 39.1043C8.83858 39.3156 8.83867 39.5319 8.86359 39.7155L8.86806 39.7484L4.97662 42.0766C5.25196 43.2338 5.6757 44.3276 6.19161 45.3771L10.544 44.923L10.5606 44.95C10.8381 45.4023 11.1421 45.8236 11.4953 46.2261L11.5173 46.2511L9.76322 49.885C10.969 50.9345 12.3322 51.819 13.8055 52.4762L15.9436 49.503L15.9807 49.5191C16.6914 49.8277 17.4524 50.0853 18.2411 50.2561L18.2776 50.2641L18.5548 53.7998C19.3063 53.8947 20.0809 53.9578 20.8473 53.9578C21.6228 53.9578 22.3887 53.9113 23.1388 53.8007L23.443 50.3759L23.48 50.3686C24.0876 50.2481 24.677 50.1104 25.2311 49.9395L25.2584 49.9311L28.0018 52.3973C29.4003 51.7412 30.6956 50.9297 31.8486 49.9286L30.1204 46.9573L30.1483 46.9299C30.633 46.4532 31.0573 45.9608 31.4374 45.418L31.4545 45.3936L35.2173 45.8009C35.8875 44.6361 36.3893 43.3786 36.6909 42.0499L33.4728 39.7791L33.4672 39.7656C33.4339 39.685 33.4184 39.583 33.4107 39.4779C33.4031 39.3725 33.4031 39.2594 33.4031 39.1548V39.1539C33.4031 38.6352 33.3763 38.1098 33.2991 37.6172L33.2922 37.573L36.8044 36.5997C36.5257 34.8959 35.9457 33.287 35.1053 31.8187L31.2931 32.6717L31.2736 32.6459C31.0769 32.3854 30.8756 32.1408 30.6762 31.8985C30.6208 31.8312 30.5655 31.7641 30.5106 31.6969L30.4945 31.6772L31.5615 27.5004C30.6138 26.7047 29.5653 26.0137 28.4173 25.4453L25.135 28.2455L25.108 28.2365C24.5531 28.0511 23.939 27.9042 23.3594 27.8067L23.3206 27.8002L23.0164 23.8065C22.2925 23.7125 21.5432 23.6661 20.795 23.6661C19.9923 23.6661 19.2238 23.7128 18.4741 23.8224ZM18.4228 23.7284C19.1898 23.614 19.9753 23.5656 20.795 23.5656C21.5613 23.5656 22.329 23.614 23.07 23.7122L23.1104 23.7175L23.4149 27.7141C23.9781 27.8107 24.572 27.9532 25.1129 28.1321L28.4024 25.3258L28.4321 25.3404C29.6088 25.9201 30.6821 26.6275 31.6504 27.4438L31.6745 27.4642L30.6045 31.6529C30.6537 31.713 30.7033 31.7732 30.7531 31.8337C30.9461 32.0682 31.1424 32.3068 31.3343 32.5595L35.1556 31.7044L35.174 31.7365C36.0377 33.2365 36.631 34.8832 36.9109 36.6282L36.918 36.6726L33.4052 37.646C33.4783 38.1325 33.5036 38.6475 33.5036 39.1539C33.5036 39.2595 33.5036 39.3692 33.511 39.4706C33.518 39.566 33.5312 39.65 33.555 39.714L36.8037 42.0064L36.7963 42.0392C36.4909 43.4011 35.9768 44.6888 35.288 45.8795L35.2716 45.9079L31.5027 45.5C31.1304 46.0284 30.7164 46.5093 30.2466 46.9742L31.9773 49.9499L31.946 49.9771C30.7689 51.0049 29.4443 51.8345 28.0142 52.5025L27.9841 52.5166L25.2335 50.044C24.6942 50.2089 24.1232 50.3427 23.5365 50.4599L23.232 53.8884L23.1929 53.8943C22.4245 54.01 21.6403 54.0584 20.8473 54.0584C20.0617 54.0584 19.2685 53.9925 18.5015 53.8944L18.461 53.8892L18.1832 50.3464C17.4141 50.1771 16.6721 49.9264 15.9779 49.6274L13.8394 52.6013L13.802 52.5847C12.293 51.9163 10.8985 51.0112 9.66819 49.9356L9.63935 49.9104L11.3978 46.2673C11.0568 45.8757 10.7614 45.4666 10.4915 45.0295L6.13241 45.4844L6.11692 45.453C5.58606 44.3778 5.15019 43.2548 4.87028 42.0638L4.86188 42.028L8.75977 39.696C8.73803 39.5126 8.73803 39.3034 8.73803 39.1064V39.1043C8.73803 38.9966 8.7445 38.8936 8.75085 38.7925L8.75086 38.7923C8.75668 38.6996 8.76239 38.6087 8.76336 38.515L4.78691 35.9683L4.79347 35.9347C5.04513 34.6468 5.48113 33.4318 6.06625 32.2831L6.08074 32.2546L6.11264 32.2556C7.63732 32.3037 9.35899 32.3292 11.0832 32.3532C11.0963 32.3397 11.1087 32.3216 11.124 32.2982C11.1251 32.2965 11.1262 32.2948 11.1273 32.2931C11.1443 32.267 11.1653 32.2349 11.1932 32.208C11.3604 31.9819 11.5351 31.7703 11.7256 31.5674L9.61239 27.7382L9.64238 27.7115C10.7938 26.6865 12.1454 25.8057 13.6017 25.1374L13.6386 25.1204L16.1591 28.499C16.2564 28.4554 16.3663 28.4112 16.4822 28.3682L16.4824 28.3681C16.875 28.225 17.2995 28.0896 17.7246 27.9707L18.3862 23.7338L18.4228 23.7284Z" fill="#040404"/>
  <path d="M20.8527 30.4223C15.8883 30.4223 11.8718 34.1747 11.8718 38.8133C11.8718 43.4506 15.8897 47.203 20.8527 47.203C25.8171 47.203 29.8323 43.4506 29.8323 38.8133C29.8403 34.1828 25.8157 30.4223 20.8527 30.4223ZM27.1644 41.866C26.5035 43.1986 25.3814 44.2711 23.9817 44.9374C23.0433 45.3918 21.948 45.6519 20.8259 45.6519C20.547 45.6519 20.2695 45.6264 19.9826 45.6023C19.6247 45.5541 19.2962 45.5058 18.9651 45.416C18.5562 45.3181 18.1741 45.18 17.8188 45.0098C17.4086 44.8221 17.001 44.6022 16.6444 44.3435C15.828 43.775 15.1402 43.0605 14.6616 42.2078C14.4109 41.7775 14.2273 41.3538 14.0798 40.8752C13.9055 40.3068 13.8009 39.7142 13.8009 39.0721C13.8009 38.0974 14.0275 37.1724 14.4351 36.3345C14.966 35.2379 15.836 34.2887 16.879 33.6224C16.879 33.6224 16.8871 33.6143 16.9059 33.5969C17.5923 33.1666 18.3832 32.8341 19.2185 32.6477C19.4973 32.574 19.8003 32.5244 20.0872 32.5016C20.3392 32.4761 20.5738 32.4761 20.8272 32.4761C21.8971 32.4761 22.9401 32.7121 23.8262 33.1183C24.3397 33.3543 24.817 33.6385 25.2781 33.971C26.852 35.1815 27.8522 36.9928 27.8522 39.0319V39.1056C27.8508 40.0802 27.572 41.0307 27.1644 41.866Z" fill="#4775B0"/>
  <path fill-rule="evenodd" clip-rule="evenodd" d="M9.43108 24.2607L5.79127 27.8764C1.96926 31.6744 -0.0934285 36.9948 0.320429 42.4189C0.540066 45.3074 1.42642 48.0807 2.98176 50.4722C6.54154 55.9448 13.256 58.8745 20.1419 58.1006C23.7113 57.7003 27.0673 56.1547 29.799 53.7691L41.4787 43.5669L41.6551 43.7688L29.9754 53.971C27.2052 56.3902 23.799 57.9603 20.1718 58.3671C13.1956 59.1511 6.37764 56.1846 2.75699 50.6184C1.17523 48.1863 0.27585 45.3691 0.0530787 42.4393C-0.36694 36.9345 1.72635 31.5378 5.60227 27.6862L9.24212 24.0705L9.43108 24.2607Z" fill="black"/>
  <path fill-rule="evenodd" clip-rule="evenodd" d="M36.4236 0.702418L10.3482 23.3538L10.1724 23.1514L36.2478 0.5L36.4236 0.702418Z" fill="black"/>
  <path fill-rule="evenodd" clip-rule="evenodd" d="M54.4129 32.189L59.6642 27.5799L59.841 27.7814L54.5897 32.3905L54.4129 32.189Z" fill="black"/>
  <path fill-rule="evenodd" clip-rule="evenodd" d="M62.5988 24.7579L76.2827 12.7484L76.4595 12.95L62.7757 24.9594L62.5988 24.7579Z" fill="black"/>
  <path fill-rule="evenodd" clip-rule="evenodd" d="M46.9804 38.7112L52.2075 34.1236L52.3844 34.3251L47.1573 38.9127L46.9804 38.7112Z" fill="black"/>
  <path d="M39.8762 32.7201L40.7315 31.2387C41.316 30.2238 42.7773 30.2238 43.3619 31.2387L52.3039 46.7297L61.2486 62.2208C61.8331 63.233 61.1038 64.4999 59.9321 64.4999H42.0454H24.1586C22.9909 64.4999 22.2575 63.2317 22.8421 62.2208L31.7868 46.7297L35.562 40.1901" fill="white"/>
  <path d="M39.8762 32.7201L40.7315 31.2387C41.316 30.2238 42.7773 30.2238 43.3619 31.2387L52.3039 46.7297L61.2486 62.2208C61.8332 63.233 61.1038 64.4999 59.9321 64.4999H42.0454H24.1586C22.9909 64.4999 22.2575 63.2317 22.8421 62.2208L31.7868 46.7297L35.562 40.1901" stroke="black" stroke-miterlimit="10"/>
  <path fill-rule="evenodd" clip-rule="evenodd" d="M43.3054 36.6097C43.1667 36.3696 42.9785 36.1906 42.7613 36.0704L42.8261 35.9531C43.0647 36.085 43.2706 36.2814 43.4215 36.5427L56.2568 58.7731C56.8672 59.8302 56.1013 61.1501 54.8822 61.1501H29.2117C27.9924 61.1501 27.2295 59.8287 27.8398 58.7731M27.8398 58.7731L36.3891 43.9658L36.5052 44.0328L27.9559 58.8402C27.3973 59.8063 28.0956 61.016 29.2117 61.016H54.8822C55.9985 61.016 56.6993 59.8075 56.1407 58.8402L43.3054 36.6097" fill="black"/>
  <path d="M36.5625 34.0664H42.5216L41.1662 52.8233H38.3228L36.5625 34.0664Z" fill="#4775B0"/>
  <path d="M41.031 55.3291H38.1875V58.1726H41.031V55.3291Z" fill="#4775B0"/>
  <path d="M53.9095 41.2614C54.8002 41.2614 55.5222 40.5394 55.5222 39.6487C55.5222 38.7579 54.8002 38.0359 53.9095 38.0359C53.0187 38.0359 52.2967 38.7579 52.2967 39.6487C52.2967 40.5394 53.0187 41.2614 53.9095 41.2614Z" fill="black"/>
  <path d="M21.639 7.54979C22.5297 7.54979 23.2518 6.82772 23.2518 5.93701C23.2518 5.04629 22.5297 4.32422 21.639 4.32422C20.7483 4.32422 20.0262 5.04629 20.0262 5.93701C20.0262 6.82772 20.7483 7.54979 21.639 7.54979Z" fill="black"/>
  <path d="M18.1332 9.97098C18.8018 9.97098 19.3438 9.42898 19.3438 8.76039C19.3438 8.09179 18.8018 7.54979 18.1332 7.54979C17.4646 7.54979 16.9226 8.09179 16.9226 8.76039C16.9226 9.42898 17.4646 9.97098 18.1332 9.97098Z" fill="white"/>
  <path fill-rule="evenodd" clip-rule="evenodd" d="M18.1332 7.61682C17.5016 7.61682 16.9896 8.12881 16.9896 8.76039C16.9896 9.39196 17.5016 9.90395 18.1332 9.90395C18.7648 9.90395 19.2768 9.39196 19.2768 8.76039C19.2768 8.12881 18.7648 7.61682 18.1332 7.61682ZM16.8556 8.76039C16.8556 8.05477 17.4276 7.48276 18.1332 7.48276C18.8388 7.48276 19.4108 8.05477 19.4108 8.76039C19.4108 9.466 18.8388 10.038 18.1332 10.038C17.4276 10.038 16.8556 9.466 16.8556 8.76039Z" fill="black"/>
  <path d="M15.2696 11.927C15.7723 11.927 16.1799 11.5194 16.1799 11.0167C16.1799 10.5139 15.7723 10.1064 15.2696 10.1064C14.7669 10.1064 14.3593 10.5139 14.3593 11.0167C14.3593 11.5194 14.7669 11.927 15.2696 11.927Z" fill="#4775B0"/>
  <path d="M13.5697 62.9851C14.5078 62.9851 15.2683 62.2247 15.2683 61.2866C15.2683 60.3485 14.5078 59.588 13.5697 59.588C12.6316 59.588 11.8711 60.3485 11.8711 61.2866C11.8711 62.2247 12.6316 62.9851 13.5697 62.9851Z" fill="#4775B0"/>
  <path d="M63.8985 18.8527C64.5671 18.8527 65.1091 18.3107 65.1091 17.6421C65.1091 16.9735 64.5671 16.4315 63.8985 16.4315C63.2299 16.4315 62.6879 16.9735 62.6879 17.6421C62.6879 18.3107 63.2299 18.8527 63.8985 18.8527Z" fill="white"/>
  <path fill-rule="evenodd" clip-rule="evenodd" d="M63.8987 16.4983C63.2672 16.4983 62.7552 17.0103 62.7552 17.6419C62.7552 18.2735 63.2672 18.7854 63.8987 18.7854C64.5303 18.7854 65.0423 18.2735 65.0423 17.6419C65.0423 17.0103 64.5303 16.4983 63.8987 16.4983ZM62.6211 17.6419C62.6211 16.9363 63.1931 16.3643 63.8987 16.3643C64.6043 16.3643 65.1763 16.9363 65.1763 17.6419C65.1763 18.3475 64.6043 18.9195 63.8987 18.9195C63.1931 18.9195 62.6211 18.3475 62.6211 17.6419Z" fill="black"/>
</svg>