<svg xmlns="http://www.w3.org/2000/svg" width="63" height="65" viewBox="0 0 63 65" fill="none">
  <path fill-rule="evenodd" clip-rule="evenodd" d="M60.6809 53.4256C59.789 53.4256 59.0659 54.1487 59.0659 55.0406C59.0659 55.9326 59.789 56.6556 60.6809 56.6556C61.5729 56.6556 62.2959 55.9326 62.2959 55.0406C62.2959 54.1487 61.5729 53.4256 60.6809 53.4256ZM58.9626 55.0406C58.9626 54.0916 59.7319 53.3223 60.6809 53.3223C61.6299 53.3223 62.3992 54.0916 62.3992 55.0406C62.3992 55.9896 61.6299 56.7589 60.6809 56.7589C59.7319 56.7589 58.9626 55.9896 58.9626 55.0406Z" fill="black"/>
  <path fill-rule="evenodd" clip-rule="evenodd" d="M38.4096 63.3145H52.072V63.4436H38.4096V63.3145Z" fill="black"/>
  <path fill-rule="evenodd" clip-rule="evenodd" d="M11.1331 63.3145H25.6889V63.4436H11.1331V63.3145Z" fill="black"/>
  <path fill-rule="evenodd" clip-rule="evenodd" d="M28.1161 62.3612C27.554 62.3612 27.0984 62.8168 27.0984 63.379C27.0984 63.9411 27.554 64.3967 28.1161 64.3967C28.6782 64.3967 29.1339 63.9411 29.1339 63.379C29.1339 62.8168 28.6782 62.3612 28.1161 62.3612ZM26.9951 63.379C26.9951 62.7598 27.497 62.2579 28.1161 62.2579C28.7353 62.2579 29.2372 62.7598 29.2372 63.379C29.2372 63.9981 28.7353 64.5 28.1161 64.5C27.497 64.5 26.9951 63.9981 26.9951 63.379Z" fill="black"/>
  <path d="M31.8526 64.4484C32.4432 64.4484 32.922 63.9696 32.922 63.379C32.922 62.7883 32.4432 62.3095 31.8526 62.3095C31.262 62.3095 30.7832 62.7883 30.7832 63.379C30.7832 63.9696 31.262 64.4484 31.8526 64.4484Z" fill="black"/>
  <path d="M35.6657 64.4484C36.2564 64.4484 36.7351 63.9696 36.7351 63.379C36.7351 62.7883 36.2564 62.3095 35.6657 62.3095C35.0751 62.3095 34.5963 62.7883 34.5963 63.379C34.5963 63.9696 35.0751 64.4484 35.6657 64.4484Z" fill="#4875B2"/>
  <path fill-rule="evenodd" clip-rule="evenodd" d="M30.7832 2.2737H52.5922L52.5908 2.33965L52.5262 2.33824C52.5908 2.33965 52.5908 2.33979 52.5908 2.33979L52.5908 2.34022L52.5878 2.48124C52.5858 2.57385 52.583 2.71004 52.5796 2.88438C52.5726 3.23307 52.563 3.73436 52.5524 4.34472C52.531 5.56544 52.5054 7.22243 52.4884 8.9675C52.4542 12.4598 52.4543 16.2987 52.5905 17.7045L52.462 17.7169C52.325 16.3025 52.3252 12.4551 52.3593 8.96624C52.3764 7.22073 52.402 5.5634 52.4233 4.34246C52.434 3.73198 52.4436 3.2306 52.4505 2.88182C52.454 2.70743 52.4568 2.57119 52.4587 2.47855L52.4603 2.40278H30.7832V2.2737Z" fill="black"/>
  <path fill-rule="evenodd" clip-rule="evenodd" d="M13.6242 0.603267C13.0311 0.603267 12.5503 1.08408 12.5503 1.67719C12.5503 2.27031 13.0311 2.75112 13.6242 2.75112C14.2173 2.75112 14.6981 2.27031 14.6981 1.67719C14.6981 1.08408 14.2173 0.603267 13.6242 0.603267ZM12.447 1.67719C12.447 1.02705 12.9741 0.5 13.6242 0.5C14.2744 0.5 14.8014 1.02705 14.8014 1.67719C14.8014 2.32734 14.2744 2.85439 13.6242 2.85439C12.9741 2.85439 12.447 2.32734 12.447 1.67719Z" fill="black"/>
  <path d="M52.5263 19.8545C53.1479 19.8545 53.6519 19.3506 53.6519 18.729C53.6519 18.1074 53.1479 17.6034 52.5263 17.6034C51.9047 17.6034 51.4007 18.1074 51.4007 18.729C51.4007 19.3506 51.9047 19.8545 52.5263 19.8545Z" fill="black"/>
  <path d="M1.66665 23.1854C2.58712 23.1854 3.3333 22.4392 3.3333 21.5188C3.3333 20.5983 2.58712 19.8521 1.66665 19.8521C0.746184 19.8521 0 20.5983 0 21.5188C0 22.4392 0.746184 23.1854 1.66665 23.1854Z" fill="#4875B2"/>
  <path d="M41.1456 36.5263C46.0461 41.3093 46.4825 52.9988 40.1273 58.5143C34.6424 63.2744 26.4699 61.3754 25.2219 61.0845C22.0979 60.3596 21.8145 59.4076 14.8544 56.5848C7.80754 53.7262 7.3175 54.3847 5.93416 53.055C0.911236 48.2286 2.68508 35.0434 9.90298 27.3891C11.1689 26.0466 17.0979 19.7602 22.5802 21.2074C27.5164 22.5116 27.5725 28.8898 35.9032 33.7545C39.0298 35.5819 39.5989 35.0204 41.1456 36.5263Z" fill="#6097C3"/>
  <path d="M47.8249 22.9889V17.1365L36.6663 5.85538H10.7401C9.14744 5.85538 7.85853 7.14429 7.85853 8.73692V56.8299C7.85853 58.4199 9.14744 59.7114 10.7401 59.7114H44.946" fill="white"/>
  <path fill-rule="evenodd" clip-rule="evenodd" d="M7.79399 8.73692C7.79399 7.10864 9.1118 5.79083 10.7401 5.79083H36.6932L47.8895 17.11V22.9889H47.7604V17.1631L36.6394 5.91992H10.7401C9.18309 5.91992 7.92307 7.17993 7.92307 8.73692V56.8299C7.92307 58.3843 9.18312 59.6469 10.7401 59.6469H44.946V59.7759H10.7401C9.11176 59.7759 7.79399 58.4555 7.79399 56.8299V8.73692Z" fill="black"/>
  <path d="M47.8249 17.1365L36.6663 5.85538H36.0588V16.0059C36.0588 16.9477 36.8219 17.7108 37.7637 17.7108H47.8249L47.8249 17.1365Z" fill="#4875B2"/>
  <path fill-rule="evenodd" clip-rule="evenodd" d="M36.0265 5.82311H36.6797L47.8572 17.1233V17.7431H37.7637C36.8041 17.7431 36.0265 16.9655 36.0265 16.0059V5.82311ZM36.0911 5.88765V16.0059C36.0911 16.9298 36.8398 17.6785 37.7637 17.6785H47.7926V17.1498L36.6528 5.88765H36.0911Z" fill="black"/>
  <path d="M51.7529 59.7084H35.3774C32.8404 59.7084 30.7832 57.6512 30.7832 55.1142V27.58C30.7832 25.0431 32.8404 22.9859 35.3774 22.9859H51.7529C54.2899 22.9859 56.347 25.0431 56.347 27.58V55.1142C56.347 57.6538 54.2899 59.7084 51.7529 59.7084Z" fill="white"/>
  <path fill-rule="evenodd" clip-rule="evenodd" d="M35.3774 23.0505C32.876 23.0505 30.8478 25.0787 30.8478 27.58V55.1142C30.8478 57.6156 32.876 59.6438 35.3774 59.6438H51.7529C54.2543 59.6438 56.2825 57.6181 56.2825 55.1142V27.58C56.2825 25.0787 54.2542 23.0505 51.7529 23.0505H35.3774ZM30.7187 27.58C30.7187 25.0074 32.8047 22.9214 35.3774 22.9214H51.7529C54.3255 22.9214 56.4116 25.0074 56.4116 27.58V55.1142C56.4116 57.6894 54.3255 59.7729 51.7529 59.7729H35.3774C32.8047 59.7729 30.7187 57.6869 30.7187 55.1142V27.58Z" fill="black"/>
  <path fill-rule="evenodd" clip-rule="evenodd" d="M34.8127 27.1994H52.5909V35.6081H34.8127V27.1994ZM34.9417 27.3285V35.479H52.4618V27.3285H34.9417Z" fill="black"/>
  <path fill-rule="evenodd" clip-rule="evenodd" d="M36.1508 44.6125C35.482 44.6125 34.9417 45.1528 34.9417 45.8215V54.3717C34.9417 55.0405 35.482 55.5808 36.1508 55.5808H51.2527C51.9215 55.5808 52.4618 55.0405 52.4618 54.3717V45.8215C52.4618 45.1528 51.9215 44.6125 51.2527 44.6125H36.1508ZM34.8126 45.8215C34.8126 45.0815 35.4107 44.4834 36.1508 44.4834H51.2527C51.9928 44.4834 52.5909 45.0815 52.5909 45.8215V54.3717C52.5909 55.1118 51.9928 55.7099 51.2527 55.7099H36.1508C35.4107 55.7099 34.8126 55.1118 34.8126 54.3717V45.8215Z" fill="black"/>
  <path fill-rule="evenodd" clip-rule="evenodd" d="M43.6359 44.548H43.765V55.6479H43.6359V44.548Z" fill="black"/>
  <path fill-rule="evenodd" clip-rule="evenodd" d="M34.8772 50.1177V49.9886H52.5263V50.1177H34.8772Z" fill="black"/>
  <path d="M39.5095 42.4551H37.312C35.9669 42.4551 34.8797 41.3653 34.8797 40.0228C34.8797 38.6777 35.9695 37.5904 37.312 37.5904H39.5095C40.8546 37.5904 41.9419 38.6803 41.9419 40.0228C41.9419 41.3653 40.8546 42.4551 39.5095 42.4551Z" fill="#4875B2"/>
  <path d="M27.7154 31.401H12.4475C12.2255 31.401 12.0468 31.2224 12.0468 31.0003C12.0468 30.7783 12.2255 30.5996 12.4475 30.5996H27.7154C27.9374 30.5996 28.1161 30.7783 28.1161 31.0003C28.1161 31.2224 27.9349 31.401 27.7154 31.401Z" fill="black"/>
  <path d="M27.7154 37.9886H12.4475C12.2255 37.9886 12.0468 37.81 12.0468 37.5879C12.0468 37.3659 12.2255 37.1872 12.4475 37.1872H27.7154C27.9374 37.1872 28.1161 37.3659 28.1161 37.5879C28.1161 37.81 27.9349 37.9886 27.7154 37.9886Z" fill="black"/>
  <path d="M27.7154 44.5785H12.4475C12.2255 44.5785 12.0468 44.3998 12.0468 44.1778C12.0468 43.9557 12.2255 43.7771 12.4475 43.7771H27.7154C27.9374 43.7771 28.1161 43.9557 28.1161 44.1778C28.1161 44.3973 27.9349 44.5785 27.7154 44.5785Z" fill="black"/>
  <path d="M27.7154 51.1661H12.4475C12.2255 51.1661 12.0468 50.9875 12.0468 50.7654C12.0468 50.5434 12.2255 50.3647 12.4475 50.3647H27.7154C27.9374 50.3647 28.1161 50.5434 28.1161 50.7654C28.1161 50.9849 27.9349 51.1661 27.7154 51.1661Z" fill="black"/>
  <path fill-rule="evenodd" clip-rule="evenodd" d="M20.5051 10.2874C16.1545 10.2874 12.6277 13.8143 12.6277 18.1649C12.6277 22.5155 16.1545 26.0424 20.5051 26.0424C24.8557 26.0424 28.3826 22.5155 28.3826 18.1649C28.3826 13.8143 24.8557 10.2874 20.5051 10.2874ZM12.3695 18.1649C12.3695 13.6717 16.0119 10.0293 20.5051 10.0293C24.9983 10.0293 28.6408 13.6717 28.6408 18.1649C28.6408 22.6581 24.9983 26.3006 20.5051 26.3006C16.0119 26.3006 12.3695 22.6581 12.3695 18.1649Z" fill="black"/>
  <path d="M21.1024 17.9301V14.0276C22.2254 14.1757 22.7257 14.8316 22.9554 15.6662H23.7517C23.6674 14.8291 23.0804 13.5172 21.1024 13.3309V12.2206H20.3826V13.3155C18.7211 13.4023 17.6568 14.459 17.6568 15.8653C17.6568 17.3584 18.5909 18.0143 20.3826 18.5222V22.8918C19.3515 22.7871 18.4454 22.1082 18.2081 20.8882H17.4271C17.5879 22.3813 18.6318 23.4839 20.3826 23.5885V25.0229H21.1024V23.5834C22.9605 23.4533 23.9661 22.4579 23.9661 20.8576C23.9661 19.5406 23.3765 18.5988 21.1024 17.9301ZM20.3826 17.731C18.961 17.2997 18.4837 16.7305 18.4837 15.7887C18.4837 14.8852 18.9967 14.0787 20.3826 14.0047V17.731ZM21.1024 22.8918V18.729C22.7052 19.242 23.1238 19.9566 23.1238 20.9188C23.1238 22.2282 22.3428 22.7922 21.1024 22.8918Z" fill="black"/>
</svg>