<svg xmlns="http://www.w3.org/2000/svg" width="60" height="65" viewBox="0 0 60 65" fill="none">
  <path d="M23.4131 26.0427C28.6229 23.6046 34.0584 26.3502 38.1268 28.4059C44.4008 31.5758 48.1947 33.492 49.53 38.2242C51.6833 45.8505 45.5081 53.9068 44.0139 55.8581C42.1794 58.252 39.2863 62.0266 34.7051 63.0102C29.5248 64.1221 25.4405 60.9669 23.8443 59.7348C19.0577 56.0374 20.3125 52.9901 16.37 50.3886C10.4035 46.4529 3.72678 50.9229 2.27004 47.8359C1.03114 45.2095 4.78189 39.6775 7.93588 36.7277C10.9447 33.9152 12.5852 34.2204 18.6481 29.7231C22.3126 27.0025 21.9031 26.7495 23.4131 26.0427Z" fill="#5E97BC"/>
  <path d="M37.8987 9.18596C40.2816 9.18596 42.2133 7.25424 42.2133 4.87134C42.2133 2.48845 40.2816 0.556726 37.8987 0.556726C35.5158 0.556726 33.5841 2.48845 33.5841 4.87134C33.5841 7.25424 35.5158 9.18596 37.8987 9.18596Z" fill="white"/>
  <path fill-rule="evenodd" clip-rule="evenodd" d="M37.8987 0.613453C35.5471 0.613453 33.6408 2.51977 33.6408 4.87134C33.6408 7.22291 35.5471 9.12923 37.8987 9.12923C40.2503 9.12923 42.1566 7.22291 42.1566 4.87134C42.1566 2.51977 40.2503 0.613453 37.8987 0.613453ZM33.5273 4.87134C33.5273 2.45712 35.4845 0.5 37.8987 0.5C40.3129 0.5 42.27 2.45712 42.27 4.87134C42.27 7.28557 40.3129 9.24268 37.8987 9.24268C35.4845 9.24268 33.5273 7.28557 33.5273 4.87134Z" fill="black"/>
  <path fill-rule="evenodd" clip-rule="evenodd" d="M37.8635 1.4496C35.965 1.4496 34.4259 2.98868 34.4259 4.88723C34.4259 6.78577 35.965 8.32485 37.8635 8.32485C39.7621 8.32485 41.3011 6.78577 41.3011 4.88723C41.3011 2.98868 39.7621 1.4496 37.8635 1.4496ZM34.3124 4.88723C34.3124 2.92602 35.9023 1.33615 37.8635 1.33615C39.8247 1.33615 41.4146 2.92602 41.4146 4.88723C41.4146 6.84843 39.8247 8.4383 37.8635 8.4383C35.9023 8.4383 34.3124 6.84843 34.3124 4.88723Z" fill="black"/>
  <path d="M37.9032 4.54687L37.2134 3.00391C37.6843 2.86322 37.9985 3.03454 38.2356 3.32384L38.551 3.18316C38.3695 2.86663 37.9055 2.45139 37.0898 2.72822L36.8935 2.28915L36.6087 2.41622L36.8027 2.84961C36.1606 3.17862 35.9269 3.78446 36.1753 4.34038C36.4397 4.93147 36.9253 5.02564 37.724 4.90992L38.4966 6.64007C38.07 6.78075 37.5912 6.67071 37.2815 6.23051L36.9729 6.36892C37.3008 6.93165 37.9089 7.18238 38.6202 6.91463L38.8744 7.48189L39.1592 7.35483L38.905 6.78529C39.6164 6.40523 39.8387 5.83342 39.5562 5.20036C39.3203 4.67734 38.9209 4.40959 37.9032 4.54687ZM36.4885 4.1634C36.3285 3.80602 36.3886 3.39645 36.9241 3.1219L37.5833 4.59565C36.9445 4.6762 36.6552 4.53666 36.4885 4.1634ZM38.7802 6.51074L38.0439 4.8634C38.7689 4.78285 39.0604 4.9916 39.2306 5.3728C39.4632 5.89015 39.2533 6.25206 38.7802 6.51074Z" fill="black"/>
  <path d="M49.3828 20.8445C52.7406 20.8445 55.4627 18.1225 55.4627 14.7646C55.4627 11.4067 52.7406 8.68466 49.3828 8.68466C46.0249 8.68466 43.3028 11.4067 43.3028 14.7646C43.3028 18.1225 46.0249 20.8445 49.3828 20.8445Z" fill="white"/>
  <path fill-rule="evenodd" clip-rule="evenodd" d="M49.3828 8.74138C46.0562 8.74138 43.3595 11.4381 43.3595 14.7646C43.3595 18.0911 46.0562 20.7878 49.3828 20.7878C52.7093 20.7878 55.406 18.0911 55.406 14.7646C55.406 11.4381 52.7093 8.74138 49.3828 8.74138ZM43.2461 14.7646C43.2461 11.3754 45.9936 8.62793 49.3828 8.62793C52.772 8.62793 55.5194 11.3754 55.5194 14.7646C55.5194 18.1538 52.772 20.9013 49.3828 20.9013C45.9936 20.9013 43.2461 18.1538 43.2461 14.7646Z" fill="black"/>
  <path fill-rule="evenodd" clip-rule="evenodd" d="M49.3363 9.86797C46.6482 9.86797 44.4691 12.0471 44.4691 14.7351C44.4691 17.4231 46.6482 19.6022 49.3363 19.6022C52.0243 19.6022 54.2034 17.4231 54.2034 14.7351C54.2034 12.0471 52.0243 9.86797 49.3363 9.86797ZM44.3557 14.7351C44.3557 11.9844 46.5855 9.75452 49.3363 9.75452C52.087 9.75452 54.3168 11.9844 54.3168 14.7351C54.3168 17.4858 52.087 19.7157 49.3363 19.7157C46.5855 19.7157 44.3557 17.4858 44.3557 14.7351Z" fill="black"/>
  <path d="M49.7674 14.5195L51.0539 12.5148C51.5838 12.9607 51.6246 13.4633 51.4669 13.967L51.8765 14.2302C52.109 13.7719 52.2406 12.904 51.2854 12.1563L51.6518 11.5856L51.282 11.3485L50.9212 11.9113C50.0385 11.4087 49.1434 11.6004 48.6794 12.3231C48.187 13.0912 48.4502 13.7356 49.2035 14.5876L47.7615 16.834C47.2669 16.4392 47.0263 15.7913 47.3054 15.0857L46.9038 14.8281C46.4943 15.6484 46.6678 16.5594 47.5323 17.1902L47.0593 17.9277L47.4291 18.1648L47.9045 17.4251C48.9017 17.9708 49.7481 17.7904 50.2756 16.969C50.709 16.2905 50.7158 15.6132 49.7674 14.5195ZM49.1286 12.5557C49.427 12.0916 49.9557 11.8455 50.6931 12.2641L49.4645 14.1792C48.8756 13.4894 48.8166 13.0401 49.1286 12.5557ZM48.1302 17.07L49.503 14.9302C50.1576 15.7221 50.1372 16.2281 49.8196 16.7228C49.3884 17.3944 48.8008 17.4273 48.1302 17.07Z" fill="black"/>
  <path d="M27.6541 33.2772C32.9099 33.2772 37.1705 29.0166 37.1705 23.7608C37.1705 18.505 32.9099 14.2444 27.6541 14.2444C22.3983 14.2444 18.1377 18.505 18.1377 23.7608C18.1377 29.0166 22.3983 33.2772 27.6541 33.2772Z" fill="white"/>
  <path fill-rule="evenodd" clip-rule="evenodd" d="M27.6541 14.3011C22.4297 14.3011 18.1944 18.5364 18.1944 23.7608C18.1944 28.9853 22.4297 33.2205 27.6541 33.2205C32.8786 33.2205 37.1138 28.9853 37.1138 23.7608C37.1138 18.5364 32.8786 14.3011 27.6541 14.3011ZM18.081 23.7608C18.081 18.4737 22.367 14.1877 27.6541 14.1877C32.9412 14.1877 37.2273 18.4737 37.2273 23.7608C37.2273 29.0479 32.9412 33.334 27.6541 33.334C22.367 33.334 18.081 29.0479 18.081 23.7608Z" fill="black"/>
  <path fill-rule="evenodd" clip-rule="evenodd" d="M27.5679 16.1095C23.3422 16.1095 19.9166 19.5351 19.9166 23.7608C19.9166 27.9865 23.3422 31.4121 27.5679 31.4121C31.7936 31.4121 35.2192 27.9865 35.2192 23.7608C35.2192 19.5351 31.7936 16.1095 27.5679 16.1095ZM19.8032 23.7608C19.8032 19.4725 23.2796 15.9961 27.5679 15.9961C31.8562 15.9961 35.3326 19.4725 35.3326 23.7608C35.3326 28.0492 31.8562 31.5255 27.5679 31.5255C23.2796 31.5255 19.8032 28.0492 19.8032 23.7608Z" fill="black"/>
  <path d="M27.9536 23.1119V19.3838C29.028 19.5233 29.5068 20.1507 29.7246 20.9483H30.4859C30.4053 20.1473 29.8449 18.8937 27.9536 18.7167V17.6559H27.2661V18.7019C25.6778 18.7859 24.6612 19.7956 24.6612 21.1389C24.6612 22.5673 25.5541 23.1936 27.2661 23.678V27.8565C26.2802 27.7544 25.4157 27.1043 25.1876 25.9391H24.4411C24.5954 27.3664 25.5927 28.4192 27.2661 28.5202V29.8907H27.9536V28.5145C29.728 28.3908 30.6912 27.4378 30.6912 25.9096C30.6912 24.6492 30.1285 23.7517 27.9536 23.1119ZM25.452 21.0652C25.452 20.2018 25.9421 19.4303 27.2661 19.3588V22.9201C25.9092 22.5094 25.452 21.9671 25.452 21.0652ZM27.9536 27.8553V23.8754C29.4852 24.3655 29.8857 25.0485 29.8857 25.9686C29.8857 27.22 29.1392 27.76 27.9536 27.8553Z" fill="black"/>
  <path d="M48.5056 59.3204H7.98592C6.4112 59.3204 5.13485 58.044 5.13485 56.4693V31.9635C5.13485 30.3888 6.4112 29.1124 7.98592 29.1124H48.5056C50.0804 29.1124 51.3567 30.3888 51.3567 31.9635V56.4693C51.3567 58.044 50.0804 59.3204 48.5056 59.3204Z" fill="white"/>
  <path fill-rule="evenodd" clip-rule="evenodd" d="M7.98592 29.1691C6.44253 29.1691 5.19158 30.4201 5.19158 31.9635V56.4693C5.19158 58.0127 6.44253 59.2637 7.98592 59.2637H48.5056C50.049 59.2637 51.3 58.0127 51.3 56.4693V31.9635C51.3 30.4201 50.049 29.1691 48.5056 29.1691H7.98592ZM5.07812 31.9635C5.07812 30.3574 6.37987 29.0557 7.98592 29.0557H48.5056C50.1117 29.0557 51.4134 30.3574 51.4134 31.9635V56.4693C51.4134 58.0754 50.1117 59.3771 48.5056 59.3771H7.98592C6.37987 59.3771 5.07812 58.0754 5.07812 56.4693V31.9635Z" fill="black"/>
  <path d="M17.0508 48.6978H7.88498V51.5556H17.0508V48.6978Z" fill="#B8D1DF"/>
  <path d="M27.5849 48.6978H18.4191V51.5556H27.5849V48.6978Z" fill="#90B5D4"/>
  <path d="M38.2847 48.6978H29.1188V51.5556H38.2847V48.6978Z" fill="#729AC3"/>
  <path d="M48.8188 48.6978H39.6529V51.5556H48.8188V48.6978Z" fill="#4875B2"/>
  <path d="M27.5849 54.7369H7.88498V55.1147H27.5849V54.7369Z" fill="black"/>
  <path fill-rule="evenodd" clip-rule="evenodd" d="M41.6928 32.4173C40.8302 32.4173 40.1317 33.1168 40.1317 33.9784V36.9974C40.1317 37.86 40.8312 38.5585 41.6928 38.5585H46.8685C47.73 38.5585 48.4286 37.8601 48.4297 36.9973V33.9784C48.4297 33.1157 47.7301 32.4173 46.8685 32.4173H41.6928ZM40.0183 33.9784C40.0183 33.0542 40.7675 32.3038 41.6928 32.3038H46.8685C47.7927 32.3038 48.5431 33.053 48.5431 33.9784V36.9974C48.5419 37.9226 47.7928 38.6719 46.8685 38.6719H41.6928C40.7686 38.6719 40.0183 37.9227 40.0183 36.9974V33.9784Z" fill="black"/>
  <path d="M10.9074 38.8308H10.8994C10.6748 38.8308 10.5534 38.5982 10.6963 38.4439C11.2659 37.8267 12.1871 36.5458 12.0374 34.827C11.9194 33.4837 11.2046 32.5171 10.7077 31.9918C10.5625 31.8387 10.6861 31.6049 10.9108 31.6049C10.9845 31.6049 11.0549 31.6322 11.1048 31.681C11.5302 32.0951 12.4356 33.1105 12.6273 34.6251C12.8996 36.7807 11.5189 38.3338 11.1059 38.7525C11.0549 38.8035 10.9834 38.8308 10.9074 38.8308Z" fill="#4775B0"/>
  <path d="M9.67526 38.0094C9.47445 38.0094 9.35306 37.7881 9.46084 37.6191C9.76716 37.1403 10.1642 36.32 10.1779 35.2468C10.1915 34.1202 9.7751 33.2579 9.46084 32.7656C9.35306 32.5965 9.47445 32.3753 9.67526 32.3753C9.74674 32.3753 9.81595 32.4048 9.8636 32.4581C10.1574 32.786 10.9051 33.739 10.9187 35.1515C10.9335 36.6082 10.1586 37.5964 9.8636 37.9254C9.81481 37.9787 9.74674 38.0094 9.67526 38.0094Z" fill="#4775B0"/>
  <path d="M8.27866 37.079C8.07558 37.079 7.94964 36.8624 8.04721 36.6842C8.24349 36.3269 8.45905 35.7755 8.43749 35.0834C8.41934 34.4764 8.22534 33.9931 8.04608 33.6675C7.94964 33.4917 8.07898 33.2772 8.27866 33.2772C8.35694 33.2772 8.42955 33.3113 8.4806 33.3703C8.6939 33.621 9.11821 34.2144 9.15225 35.0698C9.18969 36.0387 8.70184 36.7228 8.4806 36.9849C8.43069 37.045 8.35694 37.079 8.27866 37.079Z" fill="#4775B0"/>
  <path fill-rule="evenodd" clip-rule="evenodd" d="M27.2866 12.1047C23.0185 12.1047 19.2719 14.356 17.15 17.7461L17.0538 17.686C19.1954 14.2644 22.9775 11.9912 27.2866 11.9912C33.4093 11.9912 38.4688 16.5817 39.2712 22.5393L39.1588 22.5544C38.3638 16.6516 33.3509 12.1047 27.2866 12.1047Z" fill="black"/>
  <path fill-rule="evenodd" clip-rule="evenodd" d="M17.0157 15.0159H17.1291V17.6617L19.7512 16.8484L19.7848 16.9568L17.0157 17.8157V15.0159Z" fill="black"/>
  <path d="M38.9518 27.8554C39.3252 27.8554 39.628 27.5527 39.628 27.1792C39.628 26.8058 39.3252 26.503 38.9518 26.503C38.5784 26.503 38.2756 26.8058 38.2756 27.1792C38.2756 27.5527 38.5784 27.8554 38.9518 27.8554Z" fill="black"/>
  <path d="M39.2456 25.8666C39.547 25.8666 39.7913 25.6222 39.7913 25.3208C39.7913 25.0195 39.547 24.7751 39.2456 24.7751C38.9443 24.7751 38.6999 25.0195 38.6999 25.3208C38.6999 25.6222 38.9443 25.8666 39.2456 25.8666Z" fill="black"/>
  <path d="M39.3262 23.9061C39.5831 23.9061 39.7913 23.6978 39.7913 23.4409C39.7913 23.184 39.5831 22.9758 39.3262 22.9758C39.0693 22.9758 38.861 23.184 38.861 23.4409C38.861 23.6978 39.0693 23.9061 39.3262 23.9061Z" fill="black"/>
  <path d="M17.0536 8.5105C17.6225 8.5105 18.0837 8.04929 18.0837 7.48035C18.0837 6.91141 17.6225 6.4502 17.0536 6.4502C16.4847 6.4502 16.0234 6.91141 16.0234 7.48035C16.0234 8.04929 16.4847 8.5105 17.0536 8.5105Z" fill="#4875B2"/>
  <path d="M55.4619 46.5213C56.0308 46.5213 56.492 46.0601 56.492 45.4912C56.492 44.9222 56.0308 44.461 55.4619 44.461C54.8929 44.461 54.4317 44.9222 54.4317 45.4912C54.4317 46.0601 54.8929 46.5213 55.4619 46.5213Z" fill="white"/>
  <path fill-rule="evenodd" clip-rule="evenodd" d="M55.4619 44.5177C54.9243 44.5177 54.4885 44.9536 54.4885 45.4912C54.4885 46.0288 54.9243 46.4646 55.4619 46.4646C55.9995 46.4646 56.4353 46.0288 56.4353 45.4912C56.4353 44.9536 55.9995 44.5177 55.4619 44.5177ZM54.375 45.4912C54.375 44.8909 54.8616 44.4043 55.4619 44.4043C56.0621 44.4043 56.5488 44.8909 56.5488 45.4912C56.5488 46.0914 56.0621 46.5781 55.4619 46.5781C54.8616 46.5781 54.375 46.0914 54.375 45.4912Z" fill="black"/>
  <path d="M13.5048 7.47934C14.0738 7.47934 14.535 7.01812 14.535 6.44918C14.535 5.88025 14.0738 5.41903 13.5048 5.41903C12.9359 5.41903 12.4747 5.88025 12.4747 6.44918C12.4747 7.01812 12.9359 7.47934 13.5048 7.47934Z" fill="white"/>
  <path fill-rule="evenodd" clip-rule="evenodd" d="M13.5048 5.47576C12.9672 5.47576 12.5314 5.91158 12.5314 6.44918C12.5314 6.98679 12.9672 7.42261 13.5048 7.42261C14.0425 7.42261 14.4783 6.98679 14.4783 6.44918C14.4783 5.91158 14.0425 5.47576 13.5048 5.47576ZM12.418 6.44918C12.418 5.84892 12.9046 5.3623 13.5048 5.3623C14.1051 5.3623 14.5917 5.84892 14.5917 6.44918C14.5917 7.04945 14.1051 7.53606 13.5048 7.53606C12.9046 7.53606 12.418 7.04945 12.418 6.44918Z" fill="black"/>
  <path d="M1.03015 53.8259C1.59909 53.8259 2.0603 53.3647 2.0603 52.7958C2.0603 52.2268 1.59909 51.7656 1.03015 51.7656C0.461214 51.7656 0 52.2268 0 52.7958C0 53.3647 0.461214 53.8259 1.03015 53.8259Z" fill="#4875B2"/>
  <path fill-rule="evenodd" clip-rule="evenodd" d="M3.13672 2.23242H21.026V2.34587H3.25017V16.3777H3.13672V2.23242Z" fill="black"/>
  <path fill-rule="evenodd" clip-rule="evenodd" d="M59.1082 64.3862V45.0322H59.2216V64.4996H44.9141V64.3862H59.1082Z" fill="black"/>
</svg>