<svg xmlns="http://www.w3.org/2000/svg" width="44" height="44" viewBox="0 0 44 44" fill="none">
  <path d="M9.1665 9.35032C9.1665 9.24907 9.24859 9.16699 9.34984 9.16699H40.6082C40.7094 9.16699 40.7915 9.24907 40.7915 9.35033V28.2337C40.7915 28.3349 40.7094 28.417 40.6082 28.417H9.34984C9.24858 28.417 9.1665 28.3349 9.1665 28.2337V9.35032Z" fill="#DAE0FF"/>
  <path d="M37.5 13H5.5V17V21V33H37.5V21V17V13Z" fill="white"/>
  <path fill-rule="evenodd" clip-rule="evenodd" d="M36.5 14.1833C36.5 14.0821 36.4179 14 36.3167 14H6.68333C6.58208 14 6.5 14.0821 6.5 14.1833V31.8167C6.5 31.9179 6.58208 32 6.68333 32H36.3167C36.4179 32 36.5 31.9179 36.5 31.8167V14.1833ZM37.3167 13C37.4179 13 37.5 13.0821 37.5 13.1833V32.8167C37.5 32.9179 37.4179 33 37.3167 33H5.68333C5.58208 33 5.5 32.9179 5.5 32.8167V13.1833C5.5 13.0821 5.58208 13 5.68333 13H37.3167Z" fill="#0047BB"/>
  <path fill-rule="evenodd" clip-rule="evenodd" d="M37.5 21H5.5V17H37.5V21Z" fill="#0047BB"/>
  <path fill-rule="evenodd" clip-rule="evenodd" d="M25.5005 25.5H19.5005V24.5H25.5005V25.5ZM29.5005 28.5H19.5005V27.5H29.5005V28.5Z" fill="black"/>
  <path d="M14.6665 26.584C14.6665 28.1028 13.4353 29.334 11.9165 29.334C10.3977 29.334 9.1665 28.1028 9.1665 26.584C9.1665 25.0652 10.3977 23.834 11.9165 23.834C13.4353 23.834 14.6665 25.0652 14.6665 26.584Z" fill="black"/>
</svg>