<svg xmlns="http://www.w3.org/2000/svg" width="44" height="44" viewBox="0 0 44 44" fill="none">
  <path d="M31.172 23.8343C31.172 24.8468 30.3512 25.6676 29.3387 25.6676C28.3262 25.6676 27.5054 24.8468 27.5054 23.8343C27.5054 22.8218 28.3262 22.001 29.3387 22.001C30.3512 22.001 31.172 22.8218 31.172 23.8343Z" fill="black"/>
  <path d="M7.33691 18.334H25.6702V31.1673H7.33691V18.334Z" fill="#DAE0FF"/>
  <path fill-rule="evenodd" clip-rule="evenodd" d="M33.9202 15.9503C33.9202 15.7478 33.7561 15.5837 33.5536 15.5837H8.62025C8.41774 15.5837 8.25358 15.7478 8.25358 15.9503V29.8837C8.25358 30.0862 8.41774 30.2503 8.62025 30.2503H33.5536C33.7561 30.2503 33.9202 30.0862 33.9202 29.8837V15.9503ZM7.70358 14.667C7.50108 14.667 7.33691 14.8312 7.33691 15.0337V30.8003C7.33691 31.0028 7.50108 31.167 7.70358 31.167H34.4702C34.6728 31.167 34.8369 31.0028 34.8369 30.8003V15.0337C34.8369 14.8312 34.6728 14.667 34.4702 14.667H7.70358Z" fill="#0047BB"/>
  <path d="M7.33154 14.6667L23.6084 11.0496C23.7229 11.0241 23.8315 11.1113 23.8315 11.2285V15.5833" stroke="#0047BB" stroke-width="0.916667"/>
</svg>