<svg xmlns="http://www.w3.org/2000/svg" width="20" height="20" viewBox="0 0 20 20" fill="none">
  <path d="M2.50781 9.34961V13.0913C2.50781 16.8329 4.00781 18.3329 7.74948 18.3329H12.2411C15.9828 18.3329 17.4828 16.8329 17.4828 13.0913V9.34961" stroke="#0047BB" stroke-width="1.5" stroke-linecap="round" stroke-linejoin="round"/>
  <path d="M10.0017 10.0003C11.5267 10.0003 12.6517 8.75866 12.5017 7.23366L11.9517 1.66699H8.06003L7.5017 7.23366C7.3517 8.75866 8.4767 10.0003 10.0017 10.0003Z" stroke="#0047BB" stroke-width="1.5" stroke-linecap="round" stroke-linejoin="round"/>
  <path d="M15.2596 10.0003C16.943 10.0003 18.1763 8.63366 18.0096 6.95866L17.7763 4.66699C17.4763 2.50033 16.643 1.66699 14.4596 1.66699H11.918L12.5013 7.50866C12.643 8.88366 13.8846 10.0003 15.2596 10.0003Z" stroke="#0047BB" stroke-width="1.5" stroke-linecap="round" stroke-linejoin="round"/>
  <path d="M4.69868 10.0003C6.07368 10.0003 7.31535 8.88366 7.44868 7.50866L7.63202 5.66699L8.03202 1.66699H5.49035C3.30702 1.66699 2.47368 2.50033 2.17368 4.66699L1.94868 6.95866C1.78201 8.63366 3.01535 10.0003 4.69868 10.0003Z" stroke="#0047BB" stroke-width="1.5" stroke-linecap="round" stroke-linejoin="round"/>
  <path d="M10.0013 14.167C8.60964 14.167 7.91797 14.8587 7.91797 16.2503V18.3337H12.0846V16.2503C12.0846 14.8587 11.393 14.167 10.0013 14.167Z" stroke="#0047BB" stroke-width="1.5" stroke-linecap="round" stroke-linejoin="round"/>
</svg>