<svg xmlns="http://www.w3.org/2000/svg" width="197" height="214" viewBox="0 0 197 214" fill="none">
  <path fill-rule="evenodd" clip-rule="evenodd" d="M1.13308 184.215H31.886V184.719H1.63806V205.019H135.406V205.524H1.13308V184.215Z" fill="black"/>
  <path fill-rule="evenodd" clip-rule="evenodd" d="M37.0873 22.2189H101.471V22.7238H37.5923V43.3268H37.0873V22.2189Z" fill="black"/>
  <path d="M111.369 26.6121C113.656 26.6121 115.51 24.7582 115.51 22.4713C115.51 20.1844 113.656 18.3306 111.369 18.3306C109.082 18.3306 107.228 20.1844 107.228 22.4713C107.228 24.7582 109.082 26.6121 111.369 26.6121Z" fill="black"/>
  <path d="M124.498 26.6626C126.785 26.6626 128.639 24.8087 128.639 22.5218C128.639 20.2349 126.785 18.3811 124.498 18.3811C122.211 18.3811 120.358 20.2349 120.358 22.5218C120.358 24.8087 122.211 26.6626 124.498 26.6626Z" fill="#4A76BA"/>
  <path d="M137.527 26.6626C139.814 26.6626 141.667 24.8087 141.667 22.5218C141.667 20.2349 139.814 18.3811 137.527 18.3811C135.24 18.3811 133.386 20.2349 133.386 22.5218C133.386 24.8087 135.24 26.6626 137.527 26.6626Z" fill="white"/>
  <path fill-rule="evenodd" clip-rule="evenodd" d="M137.527 18.6335C135.379 18.6335 133.638 20.3744 133.638 22.5218C133.638 24.6693 135.379 26.4101 137.527 26.4101C139.674 26.4101 141.415 24.6693 141.415 22.5218C141.415 20.3744 139.674 18.6335 137.527 18.6335ZM133.133 22.5218C133.133 20.0955 135.1 18.1286 137.527 18.1286C139.953 18.1286 141.92 20.0955 141.92 22.5218C141.92 24.9482 139.953 26.9151 137.527 26.9151C135.1 26.9151 133.133 24.9482 133.133 22.5218Z" fill="black"/>
  <path d="M19.9687 17.5226C24.7377 17.5226 28.6037 13.6566 28.6037 8.88754C28.6037 4.11854 24.7377 0.252487 19.9687 0.252487C15.1997 0.252487 11.3336 4.11854 11.3336 8.88754C11.3336 13.6566 15.1997 17.5226 19.9687 17.5226Z" fill="white"/>
  <path fill-rule="evenodd" clip-rule="evenodd" d="M19.9687 0.504974C15.3391 0.504974 11.5861 4.25798 11.5861 8.88754C11.5861 13.5171 15.3391 17.2701 19.9687 17.2701C24.5982 17.2701 28.3513 13.5171 28.3513 8.88754C28.3513 4.25798 24.5982 0.504974 19.9687 0.504974ZM11.0811 8.88754C11.0811 3.97909 15.0602 0 19.9687 0C24.8771 0 28.8562 3.97909 28.8562 8.88754C28.8562 13.796 24.8771 17.7751 19.9687 17.7751C15.0602 17.7751 11.0811 13.796 11.0811 8.88754Z" fill="black"/>
  <path d="M104.703 75.9984C92.6847 89.0772 78.8989 85.2899 75.0611 95.1874C70.7688 106.196 83.9992 120.79 91.4223 129.021C100.663 139.272 125.66 166.894 146.868 160.38C171.259 152.956 182.772 102.712 164.946 71.5041C154.191 52.7696 131.366 38.3778 120.357 43.983C111.419 48.5278 117.125 62.4651 104.703 75.9984Z" fill="#4A76BA"/>
  <path d="M96.4215 109.63C89.7559 93.1675 99.0474 82.3106 91.7758 74.6349C83.6457 66.0504 64.7596 71.7566 54.2057 74.9379C40.9754 78.9272 5.32422 89.6832 2.09238 111.599C-1.64443 136.848 38.8545 168.762 74.6571 165.985C96.169 164.318 118.994 149.826 118.64 137.454C118.388 127.506 103.34 126.647 96.4215 109.63Z" fill="#4A76BA"/>
  <path d="M143.687 109.882L38.6528 153.613C34.1585 155.481 29.0583 153.36 27.1899 148.866L0.931253 85.7949C-0.937151 81.3007 1.18374 76.2004 5.67801 74.332L110.713 30.6013C115.207 28.7329 120.307 30.8538 122.175 35.348L148.434 98.4193C150.252 102.914 148.131 108.064 143.687 109.882Z" fill="white"/>
  <path fill-rule="evenodd" clip-rule="evenodd" d="M110.81 30.8344L5.77506 74.5651C1.40882 76.3803 -0.650177 81.3332 1.1644 85.698L27.423 148.769C29.2381 153.135 34.191 155.194 38.5558 153.38L143.59 109.649L143.592 109.648C147.904 107.884 149.967 102.882 148.2 98.5139L121.942 35.4451C120.127 31.0789 115.174 29.0199 110.81 30.8344ZM122.409 35.251C120.487 30.6288 115.239 28.4459 110.616 30.3681L5.58108 74.0989C0.958867 76.0205 -1.22411 81.2681 0.698111 85.8918L26.9568 148.963C28.8784 153.585 34.126 155.768 38.7497 153.846L143.783 110.116C148.358 108.244 150.537 102.944 148.668 98.3246L148.667 98.3222L122.409 35.251Z" fill="black"/>
  <path d="M128.559 50.7297L7.34932 101.186L12.065 112.514L133.275 62.0581L128.559 50.7297Z" fill="#739BD2"/>
  <path d="M51.8542 120.77L27.6122 130.861L30.9113 138.786L55.1533 128.695L51.8542 120.77Z" fill="white"/>
  <path fill-rule="evenodd" clip-rule="evenodd" d="M27.2821 130.725L51.9903 120.44L55.4834 128.831L30.7752 139.116L27.2821 130.725ZM27.9424 130.997L31.0473 138.456L54.8231 128.559L51.7182 121.1L27.9424 130.997Z" fill="black"/>
  <path d="M79.8204 109.105L55.5785 119.196L58.8775 127.121L83.1195 117.03L79.8204 109.105Z" fill="white"/>
  <path fill-rule="evenodd" clip-rule="evenodd" d="M55.2483 119.06L79.9565 108.775L83.4496 117.166L58.7414 127.451L55.2483 119.06ZM55.9086 119.332L59.0136 126.791L82.7894 116.894L79.6844 109.435L55.9086 119.332Z" fill="black"/>
  <path d="M107.354 97.6834L83.1118 107.775L86.4109 115.7L110.653 105.609L107.354 97.6834Z" fill="white"/>
  <path fill-rule="evenodd" clip-rule="evenodd" d="M82.7817 107.639L107.49 97.3533L110.983 105.745L86.2748 116.03L82.7817 107.639ZM83.442 107.911L86.547 115.37L110.323 105.473L107.218 98.0135L83.442 107.911Z" fill="black"/>
  <path d="M103.778 115.255L33.3367 144.578L33.783 145.65L104.225 116.327L103.778 115.255Z" fill="black"/>
  <path d="M149.242 177.044H35.4713C30.6236 177.044 26.6848 173.105 26.6848 168.257V99.9846C26.6848 95.1369 30.6236 91.1981 35.4713 91.1981H149.242C154.09 91.1981 158.029 95.1369 158.029 99.9846V168.308C157.978 173.105 154.09 177.044 149.242 177.044Z" fill="white"/>
  <path fill-rule="evenodd" clip-rule="evenodd" d="M35.4713 91.4506C30.763 91.4506 26.9373 95.2763 26.9373 99.9846V168.257C26.9373 172.965 30.763 176.791 35.4713 176.791H149.242C153.948 176.791 157.726 172.967 157.776 168.306L157.776 168.305L157.776 99.9846C157.776 95.2763 153.95 91.4506 149.242 91.4506H35.4713ZM26.4323 99.9846C26.4323 94.9974 30.4841 90.9456 35.4713 90.9456H149.242C154.229 90.9456 158.281 94.9974 158.281 99.9846V168.308L158.281 168.31C158.229 173.243 154.231 177.296 149.242 177.296H35.4713C30.4841 177.296 26.4323 173.244 26.4323 168.257V99.9846Z" fill="black"/>
  <path d="M147.879 144.978H126.72C124.498 144.978 122.63 143.16 122.63 140.888V127.304C122.63 125.082 124.448 123.214 126.72 123.214H147.879C150.1 123.214 151.969 125.032 151.969 127.304V140.888C151.918 143.16 150.1 144.978 147.879 144.978Z" fill="white"/>
  <path fill-rule="evenodd" clip-rule="evenodd" d="M126.72 123.466C124.589 123.466 122.882 125.219 122.882 127.304V140.888C122.882 143.019 124.636 144.726 126.72 144.726H147.879C149.957 144.726 151.667 143.024 151.716 140.885V127.304C151.716 125.173 149.963 123.466 147.879 123.466H126.72ZM122.377 127.304C122.377 124.945 124.306 122.961 126.72 122.961H147.879C150.238 122.961 152.221 124.89 152.221 127.304V140.893C152.168 143.298 150.243 145.231 147.879 145.231H126.72C124.361 145.231 122.377 143.302 122.377 140.888V127.304Z" fill="black"/>
  <path d="M60.2656 151.795H34.0069V160.38H60.2656V151.795Z" fill="#B9D2EA"/>
  <path d="M90.564 151.795H64.3054V160.38H90.564V151.795Z" fill="#91B6E1"/>
  <path d="M120.357 151.795H94.0988V160.38H120.357V151.795Z" fill="#739BD2"/>
  <path d="M150.656 151.795H124.397V160.38H150.656V151.795Z" fill="#4A76BA"/>
  <path d="M110.308 166.641H34.0069V167.803H110.308V166.641Z" fill="black"/>
  <path d="M128.538 110.034C141.451 110.034 151.919 99.566 151.919 86.6534C151.919 73.7408 141.451 63.2731 128.538 63.2731C115.626 63.2731 105.158 73.7408 105.158 86.6534C105.158 99.566 115.626 110.034 128.538 110.034Z" fill="white"/>
  <path fill-rule="evenodd" clip-rule="evenodd" d="M128.538 63.5256C115.765 63.5256 105.411 73.8803 105.411 86.6534C105.411 99.4266 115.765 109.781 128.538 109.781C141.311 109.781 151.666 99.4266 151.666 86.6534C151.666 73.8803 141.311 63.5256 128.538 63.5256ZM104.906 86.6534C104.906 73.6014 115.486 63.0206 128.538 63.0206C141.59 63.0206 152.171 73.6014 152.171 86.6534C152.171 99.7055 141.59 110.286 128.538 110.286C115.486 110.286 104.906 99.7055 104.906 86.6534Z" fill="black"/>
  <path d="M128.538 105.539C138.969 105.539 147.424 97.0839 147.424 86.6534C147.424 76.223 138.969 67.7674 128.538 67.7674C118.108 67.7674 109.652 76.223 109.652 86.6534C109.652 97.0839 118.108 105.539 128.538 105.539Z" fill="white"/>
  <path fill-rule="evenodd" clip-rule="evenodd" d="M128.538 68.0199C118.247 68.0199 109.905 76.3624 109.905 86.6534C109.905 96.9444 118.247 105.287 128.538 105.287C138.829 105.287 147.172 96.9444 147.172 86.6534C147.172 76.3624 138.829 68.0199 128.538 68.0199ZM109.4 86.6534C109.4 76.0835 117.968 67.5149 128.538 67.5149C139.108 67.5149 147.677 76.0835 147.677 86.6534C147.677 97.2233 139.108 105.792 128.538 105.792C117.968 105.792 109.4 97.2233 109.4 86.6534Z" fill="black"/>
  <path d="M129.195 85.5932V77.7661C131.467 78.0691 132.477 79.382 132.932 81.0484H134.548C134.396 79.382 133.184 76.7057 129.245 76.3522V74.1303H127.781V76.3522C124.448 76.5037 122.277 78.6245 122.277 81.5029C122.277 84.5327 124.145 85.8457 127.781 86.8556V95.6422C125.71 95.4402 123.893 94.0768 123.388 91.6024H121.822C122.125 94.6322 124.246 96.8036 127.781 97.0561V99.9344H129.245V97.0056C132.982 96.7531 135.002 94.7332 135.002 91.5014C134.951 88.825 133.79 86.9566 129.195 85.5932ZM127.73 85.1892C124.852 84.3308 123.893 83.1693 123.893 81.3009C123.893 79.483 124.903 77.8671 127.73 77.7156V85.1892ZM129.195 95.5917V87.2091C132.427 88.2191 133.235 89.6835 133.235 91.6024C133.285 94.2282 131.72 95.3897 129.195 95.5917Z" fill="black"/>
  <path d="M189.791 102.055C193.361 102.055 196.255 99.1614 196.255 95.5916C196.255 92.0218 193.361 89.1279 189.791 89.1279C186.222 89.1279 183.328 92.0218 183.328 95.5916C183.328 99.1614 186.222 102.055 189.791 102.055Z" fill="white"/>
  <path fill-rule="evenodd" clip-rule="evenodd" d="M189.791 89.3804C186.361 89.3804 183.58 92.1612 183.58 95.5916C183.58 99.0219 186.361 101.803 189.791 101.803C193.222 101.803 196.003 99.0219 196.003 95.5916C196.003 92.1612 193.222 89.3804 189.791 89.3804ZM183.075 95.5916C183.075 91.8823 186.082 88.8754 189.791 88.8754C193.501 88.8754 196.508 91.8823 196.508 95.5916C196.508 99.3008 193.501 102.308 189.791 102.308C186.082 102.308 183.075 99.3008 183.075 95.5916Z" fill="black"/>
  <path d="M13.8585 152.553C15.2251 152.553 16.3329 151.445 16.3329 150.078C16.3329 148.712 15.2251 147.604 13.8585 147.604C12.4919 147.604 11.3841 148.712 11.3841 150.078C11.3841 151.445 12.4919 152.553 13.8585 152.553Z" fill="black"/>
  <path d="M155.655 40.5494C157.022 40.5494 158.13 39.4416 158.13 38.075C158.13 36.7085 157.022 35.6007 155.655 35.6007C154.289 35.6007 153.181 36.7085 153.181 38.075C153.181 39.4416 154.289 40.5494 155.655 40.5494Z" fill="black"/>
  <path d="M155.655 212.948C163.52 212.948 169.895 206.572 169.895 198.707C169.895 190.843 163.52 184.467 155.655 184.467C147.79 184.467 141.415 190.843 141.415 198.707C141.415 206.572 147.79 212.948 155.655 212.948Z" fill="white"/>
  <path fill-rule="evenodd" clip-rule="evenodd" d="M155.655 184.719C147.93 184.719 141.667 190.982 141.667 198.707C141.667 206.432 147.93 212.695 155.655 212.695C163.38 212.695 169.643 206.432 169.643 198.707C169.643 190.982 163.38 184.719 155.655 184.719ZM141.162 198.707C141.162 190.703 147.651 184.215 155.655 184.215C163.659 184.215 170.148 190.703 170.148 198.707C170.148 206.711 163.659 213.2 155.655 213.2C147.651 213.2 141.162 206.711 141.162 198.707Z" fill="black"/>
  <path fill-rule="evenodd" clip-rule="evenodd" d="M147.674 194.364H146.161V193.859H148.082L150.102 203.302H161.26V203.807H149.694L147.674 194.364Z" fill="black"/>
  <path fill-rule="evenodd" clip-rule="evenodd" d="M163.631 195.425H149.898V194.92H164.343L162.146 201.181H151.867V200.676H161.788L163.631 195.425Z" fill="black"/>
  <path d="M151.362 208.806C152.339 208.806 153.13 208.015 153.13 207.039C153.13 206.063 152.339 205.272 151.362 205.272C150.386 205.272 149.595 206.063 149.595 207.039C149.595 208.015 150.386 208.806 151.362 208.806Z" fill="black"/>
  <path d="M159.745 208.806C160.721 208.806 161.512 208.015 161.512 207.039C161.512 206.063 160.721 205.272 159.745 205.272C158.769 205.272 157.978 206.063 157.978 207.039C157.978 208.015 158.769 208.806 159.745 208.806Z" fill="black"/>
</svg>